<svg width="316" height="166" viewBox="0 0 316 166" fill="none" xmlns="http://www.w3.org/2000/svg">
<rect width="316" height="166" rx="10" fill="#2E8BC0" fill-opacity="0.9"/>
<g clip-path="url(#clip0_30_53)">
<path d="M138.267 57H177.733C180.642 57 183 59.3683 183 62.2675V101.733C183 104.642 180.632 107 177.733 107H138.267C135.358 107 133 104.632 133 101.733V62.2675C133 59.3683 135.368 57 138.267 57ZM135.501 101.733C135.501 103.254 136.746 104.499 138.267 104.499H177.733C179.254 104.499 180.499 103.254 180.499 101.733V62.2675C180.499 60.7464 179.254 59.501 177.733 59.501H138.267C136.746 59.501 135.501 60.7464 135.501 62.2675V101.733Z" fill="white"/>
<path d="M148.557 80.7546H156.755V72.5574C156.755 71.8632 157.316 71.3018 158.01 71.3018C158.704 71.3018 159.266 71.8632 159.266 72.5574V80.7546H167.463C168.157 80.7546 168.719 81.316 168.719 82C168.719 82.6942 168.157 83.2556 167.463 83.2556H159.266V91.4528C159.266 92.147 158.704 92.7085 158.01 92.7085C157.316 92.7085 156.755 92.147 156.755 91.4528V83.2556H148.557C147.863 83.2556 147.302 82.6942 147.302 82C147.302 81.3058 147.863 80.7546 148.557 80.7546Z" fill="white"/>
</g>
<path d="M138.72 118.34L137.595 115.425C137.562 115.338 137.527 115.238 137.49 115.125C137.453 115.008 137.418 114.885 137.385 114.755C137.315 115.025 137.243 115.25 137.17 115.43L136.045 118.34H138.72ZM140.74 121H139.99C139.903 121 139.833 120.978 139.78 120.935C139.727 120.892 139.687 120.837 139.66 120.77L138.99 119.04H135.775L135.105 120.77C135.085 120.83 135.047 120.883 134.99 120.93C134.933 120.977 134.863 121 134.78 121H134.03L136.895 113.835H137.875L140.74 121ZM144.665 117.14C144.498 116.917 144.318 116.762 144.125 116.675C143.932 116.585 143.715 116.54 143.475 116.54C143.005 116.54 142.643 116.708 142.39 117.045C142.137 117.382 142.01 117.862 142.01 118.485C142.01 118.815 142.038 119.098 142.095 119.335C142.152 119.568 142.235 119.762 142.345 119.915C142.455 120.065 142.59 120.175 142.75 120.245C142.91 120.315 143.092 120.35 143.295 120.35C143.588 120.35 143.843 120.283 144.06 120.15C144.28 120.017 144.482 119.828 144.665 119.585V117.14ZM145.555 113.635V121H145.025C144.898 121 144.818 120.938 144.785 120.815L144.705 120.2C144.488 120.46 144.242 120.67 143.965 120.83C143.688 120.99 143.368 121.07 143.005 121.07C142.715 121.07 142.452 121.015 142.215 120.905C141.978 120.792 141.777 120.627 141.61 120.41C141.443 120.193 141.315 119.923 141.225 119.6C141.135 119.277 141.09 118.905 141.09 118.485C141.09 118.112 141.14 117.765 141.24 117.445C141.34 117.122 141.483 116.842 141.67 116.605C141.857 116.368 142.085 116.183 142.355 116.05C142.628 115.913 142.935 115.845 143.275 115.845C143.585 115.845 143.85 115.898 144.07 116.005C144.293 116.108 144.492 116.253 144.665 116.44V113.635H145.555ZM150.261 117.14C150.094 116.917 149.914 116.762 149.721 116.675C149.528 116.585 149.311 116.54 149.071 116.54C148.601 116.54 148.239 116.708 147.986 117.045C147.733 117.382 147.606 117.862 147.606 118.485C147.606 118.815 147.634 119.098 147.691 119.335C147.748 119.568 147.831 119.762 147.941 119.915C148.051 120.065 148.186 120.175 148.346 120.245C148.506 120.315 148.688 120.35 148.891 120.35C149.184 120.35 149.439 120.283 149.656 120.15C149.876 120.017 150.078 119.828 150.261 119.585V117.14ZM151.151 113.635V121H150.621C150.494 121 150.414 120.938 150.381 120.815L150.301 120.2C150.084 120.46 149.838 120.67 149.561 120.83C149.284 120.99 148.964 121.07 148.601 121.07C148.311 121.07 148.048 121.015 147.811 120.905C147.574 120.792 147.373 120.627 147.206 120.41C147.039 120.193 146.911 119.923 146.821 119.6C146.731 119.277 146.686 118.905 146.686 118.485C146.686 118.112 146.736 117.765 146.836 117.445C146.936 117.122 147.079 116.842 147.266 116.605C147.453 116.368 147.681 116.183 147.951 116.05C148.224 115.913 148.531 115.845 148.871 115.845C149.181 115.845 149.446 115.898 149.666 116.005C149.889 116.108 150.088 116.253 150.261 116.44V113.635H151.151ZM156.01 119.78C156.173 120 156.352 120.155 156.545 120.245C156.738 120.335 156.955 120.38 157.195 120.38C157.668 120.38 158.032 120.212 158.285 119.875C158.538 119.538 158.665 119.058 158.665 118.435C158.665 118.105 158.635 117.822 158.575 117.585C158.518 117.348 158.435 117.155 158.325 117.005C158.215 116.852 158.08 116.74 157.92 116.67C157.76 116.6 157.578 116.565 157.375 116.565C157.085 116.565 156.83 116.632 156.61 116.765C156.393 116.898 156.193 117.087 156.01 117.33V119.78ZM155.965 116.72C156.178 116.457 156.425 116.245 156.705 116.085C156.985 115.925 157.305 115.845 157.665 115.845C157.958 115.845 158.223 115.902 158.46 116.015C158.697 116.125 158.898 116.29 159.065 116.51C159.232 116.727 159.36 116.997 159.45 117.32C159.54 117.643 159.585 118.015 159.585 118.435C159.585 118.808 159.535 119.157 159.435 119.48C159.335 119.8 159.19 120.078 159 120.315C158.813 120.548 158.583 120.733 158.31 120.87C158.04 121.003 157.735 121.07 157.395 121.07C157.085 121.07 156.818 121.018 156.595 120.915C156.375 120.808 156.18 120.662 156.01 120.475V122.715H155.115V115.935H155.65C155.777 115.935 155.855 115.997 155.885 116.12L155.965 116.72ZM161.616 116.61C161.832 116.38 162.072 116.197 162.336 116.06C162.599 115.923 162.902 115.855 163.246 115.855C163.522 115.855 163.766 115.902 163.976 115.995C164.189 116.085 164.366 116.215 164.506 116.385C164.649 116.552 164.757 116.753 164.831 116.99C164.904 117.227 164.941 117.488 164.941 117.775V121H164.046V117.775C164.046 117.392 163.957 117.095 163.781 116.885C163.607 116.672 163.342 116.565 162.986 116.565C162.722 116.565 162.476 116.628 162.246 116.755C162.019 116.882 161.809 117.053 161.616 117.27V121H160.721V113.635H161.616V116.61ZM168.432 115.855C168.802 115.855 169.135 115.917 169.432 116.04C169.728 116.163 169.982 116.338 170.192 116.565C170.402 116.792 170.562 117.067 170.672 117.39C170.785 117.71 170.842 118.068 170.842 118.465C170.842 118.865 170.785 119.225 170.672 119.545C170.562 119.865 170.402 120.138 170.192 120.365C169.982 120.592 169.728 120.767 169.432 120.89C169.135 121.01 168.802 121.07 168.432 121.07C168.058 121.07 167.722 121.01 167.422 120.89C167.125 120.767 166.872 120.592 166.662 120.365C166.452 120.138 166.29 119.865 166.177 119.545C166.067 119.225 166.012 118.865 166.012 118.465C166.012 118.068 166.067 117.71 166.177 117.39C166.29 117.067 166.452 116.792 166.662 116.565C166.872 116.338 167.125 116.163 167.422 116.04C167.722 115.917 168.058 115.855 168.432 115.855ZM168.432 120.375C168.932 120.375 169.305 120.208 169.552 119.875C169.798 119.538 169.922 119.07 169.922 118.47C169.922 117.867 169.798 117.397 169.552 117.06C169.305 116.723 168.932 116.555 168.432 116.555C168.178 116.555 167.957 116.598 167.767 116.685C167.58 116.772 167.423 116.897 167.297 117.06C167.173 117.223 167.08 117.425 167.017 117.665C166.957 117.902 166.927 118.17 166.927 118.47C166.927 119.07 167.05 119.538 167.297 119.875C167.547 120.208 167.925 120.375 168.432 120.375ZM173.438 121.08C173.038 121.08 172.729 120.968 172.513 120.745C172.299 120.522 172.193 120.2 172.193 119.78V116.68H171.583C171.529 116.68 171.484 116.665 171.448 116.635C171.411 116.602 171.393 116.552 171.393 116.485V116.13L172.223 116.025L172.428 114.46C172.438 114.41 172.459 114.37 172.493 114.34C172.529 114.307 172.576 114.29 172.633 114.29H173.083V116.035H174.548V116.68H173.083V119.72C173.083 119.933 173.134 120.092 173.238 120.195C173.341 120.298 173.474 120.35 173.638 120.35C173.731 120.35 173.811 120.338 173.878 120.315C173.948 120.288 174.008 120.26 174.058 120.23C174.108 120.2 174.149 120.173 174.183 120.15C174.219 120.123 174.251 120.11 174.278 120.11C174.324 120.11 174.366 120.138 174.403 120.195L174.663 120.62C174.509 120.763 174.324 120.877 174.108 120.96C173.891 121.04 173.668 121.08 173.438 121.08ZM177.572 115.855C177.942 115.855 178.276 115.917 178.572 116.04C178.869 116.163 179.122 116.338 179.332 116.565C179.542 116.792 179.702 117.067 179.812 117.39C179.926 117.71 179.982 118.068 179.982 118.465C179.982 118.865 179.926 119.225 179.812 119.545C179.702 119.865 179.542 120.138 179.332 120.365C179.122 120.592 178.869 120.767 178.572 120.89C178.276 121.01 177.942 121.07 177.572 121.07C177.199 121.07 176.862 121.01 176.562 120.89C176.266 120.767 176.012 120.592 175.802 120.365C175.592 120.138 175.431 119.865 175.317 119.545C175.207 119.225 175.152 118.865 175.152 118.465C175.152 118.068 175.207 117.71 175.317 117.39C175.431 117.067 175.592 116.792 175.802 116.565C176.012 116.338 176.266 116.163 176.562 116.04C176.862 115.917 177.199 115.855 177.572 115.855ZM177.572 120.375C178.072 120.375 178.446 120.208 178.692 119.875C178.939 119.538 179.062 119.07 179.062 118.47C179.062 117.867 178.939 117.397 178.692 117.06C178.446 116.723 178.072 116.555 177.572 116.555C177.319 116.555 177.097 116.598 176.907 116.685C176.721 116.772 176.564 116.897 176.437 117.06C176.314 117.223 176.221 117.425 176.157 117.665C176.097 117.902 176.067 118.17 176.067 118.47C176.067 119.07 176.191 119.538 176.437 119.875C176.687 120.208 177.066 120.375 177.572 120.375Z" fill="#EBECED"/>
<defs>
<clipPath id="clip0_30_53">
<rect width="50" height="50" fill="white" transform="matrix(-1 0 0 1 183 57)"/>
</clipPath>
</defs>
</svg>
