<?xml version="1.0" standalone="no"?>
<!DOCTYPE svg PUBLIC "-//W3C//DTD SVG 20010904//EN"
 "http://www.w3.org/TR/2001/REC-SVG-20010904/DTD/svg10.dtd">
<svg version="1.0" xmlns="http://www.w3.org/2000/svg"
 width="390.000000pt" height="296.000000pt" viewBox="0 0 390.000000 296.000000"
 preserveAspectRatio="xMidYMid meet">
<metadata>
Created by potrace 1.16, written by Peter Selinger 2001-2019
</metadata>
<g transform="translate(0.000000,296.000000) scale(0.100000,-0.100000)"
fill="#145DA0" stroke="none">
<path d="M365 2930 c-171 -16 -322 -29 -337 -29 l-28 -1 0 -1450 0 -1450 1950
0 1950 0 0 1451 0 1451 -32 -20 c-108 -65 -622 -342 -668 -360 -117 -45 -179
-56 -320 -55 -169 1 -161 -2 -700 195 -565 207 -621 224 -884 269 -206 35
-546 35 -931 -1z"/>
</g>
</svg>
