<svg width="390" height="271" viewBox="0 0 390 271" fill="none" xmlns="http://www.w3.org/2000/svg">
<g clip-path="url(#clip0_167_125)">
<path d="M48.5893 241.067L54.6219 241.209L52.3433 259.52L48.2555 259.423L48.5893 241.067Z" fill="#F9B499"/>
<path d="M62.2803 267.926L62.2803 267.926C62.2803 267.429 62.0209 266.98 61.6201 266.782L57.1179 264.565L54.0484 257.467L54.0019 250.316L47.6768 249.574L46.762 254.13C46.762 254.13 48.6455 253.85 46.3201 255.862C43.9947 257.875 45.1144 261.813 45.1144 261.813L44.6073 269.173H48.793L49.0177 264.596C52.2732 265.973 53.0717 269.173 53.0717 269.173H61.1857C61.7902 269.173 62.2803 268.615 62.2803 267.926H62.2803H62.2803Z" fill="#2F2E41"/>
<path d="M57.4258 241.268L63.4584 241.411L61.1798 259.721L57.092 259.625L57.4258 241.268Z" fill="#F9B499"/>
<path d="M71.1168 268.128H71.1168C71.1168 267.631 70.8573 267.181 70.4566 266.984L65.9544 264.766L62.8849 257.668L62.8384 250.518L56.5133 249.776L55.5985 254.331C55.5985 254.331 57.482 254.051 55.1566 256.064C52.8312 258.077 53.9509 262.015 53.9509 262.015L53.4438 269.375H57.6295L57.8542 264.797C61.1097 266.175 61.9082 269.375 61.9082 269.375H70.0222C70.6267 269.375 71.1168 268.817 71.1168 268.128L71.1168 268.128H71.1168Z" fill="#2F2E41"/>
<path d="M50.5077 133.868L43.6689 150.149C41.3892 155.576 40.6668 161.528 41.5821 167.34L44.906 247.323H58.0475L63.7837 176.098L64.9156 204.233L51.7599 244.318H64.699L81.3072 204.233L82.5385 173.367L76.6381 149.415L50.5077 133.868L50.5077 133.868Z" fill="#2F2E41"/>
<path d="M235.782 64.2034V23.5366C235.782 10.5377 225.213 3.28212e-09 212.175 3.28212e-09H125.758C112.72 -0.00021474 102.151 10.5373 102.151 23.5363V246.637C102.151 259.636 112.72 270.174 125.758 270.174H212.174C225.212 270.174 235.781 259.636 235.781 246.637V93.1507H235.781C236.602 93.1507 237.268 92.4869 237.268 91.6682L237.269 65.686C237.269 64.8672 236.603 64.2034 235.782 64.2034L235.782 64.2034V64.2034Z" fill="#3F3D56"/>
<path d="M231.349 21.5797V247.832C217.553 246.987 224.57 265.111 213.451 265.681H125.261C115.372 265.682 107.354 257.692 107.351 247.832V21.5797C107.354 11.7206 115.372 3.73024 125.26 3.7315H131.764C129.993 8.07412 144.287 9.48699 145.383 9.48837H190.549C195.251 9.48243 206.595 4.74358 206.182 3.7315H213.448C223.332 3.73318 231.345 11.721 231.349 21.5763L231.349 21.5797H231.349Z" fill="white"/>
<path d="M101.456 69.1846C100.827 69.1846 100.315 69.6945 100.315 70.3215V79.4173C100.315 80.0444 100.827 80.5543 101.456 80.5543C102.085 80.5543 102.596 80.0443 102.596 79.4173V70.3215C102.596 69.6945 102.085 69.1846 101.456 69.1846Z" fill="#3F3D56"/>
<path d="M101.456 96.4718C100.827 96.4718 100.315 96.9817 100.315 97.6088V115.232C100.315 115.859 100.827 116.369 101.456 116.369C102.085 116.369 102.596 115.859 102.596 115.232V97.6088C102.596 96.9817 102.085 96.4718 101.456 96.4718Z" fill="#3F3D56"/>
<path d="M101.456 121.485C100.827 121.485 100.315 121.995 100.315 122.622V140.245C100.315 140.872 100.827 141.382 101.456 141.382C102.085 141.382 102.596 140.872 102.596 140.245V122.622C102.596 121.995 102.085 121.485 101.456 121.485Z" fill="#3F3D56"/>
<path d="M370.43 255.793L365.019 259.488L348.145 240.437L356.132 234.982L370.43 255.793Z" fill="#F9B499"/>
<path d="M351.807 268.334C351.833 268.732 352.371 269.706 352.597 270.035C353.292 271.046 354.678 271.304 355.692 270.611L372.45 259.165C373.142 258.692 373.319 257.75 372.845 257.06L372.367 256.364C372.367 256.364 371.759 253.707 368.282 252.296C368.282 252.296 367.547 255.763 362.206 254.768L360.111 253.718L356.735 263.273L353.301 266.295C352.549 266.956 351.742 267.337 351.807 268.334L351.807 268.334L351.807 268.334Z" fill="#2F2E41"/>
<path d="M330.533 265.604L323.974 265.603L320.853 240.378L328.882 241.375L330.533 265.604Z" fill="#F9B499"/>
<path d="M308.06 265.456C307.856 265.798 307.748 266.905 307.748 267.304C307.748 268.53 308.745 269.524 309.974 269.524H330.288C331.126 269.524 331.806 268.846 331.806 268.01V267.166C331.806 267.166 332.811 264.632 330.742 261.509C330.742 261.509 328.171 263.954 324.329 260.124L323.196 258.077L314.994 264.057L310.448 264.615C309.453 264.737 308.572 264.596 308.06 265.455H308.06V265.456Z" fill="#2F2E41"/>
<path d="M307.535 169.741L308.029 175.689L307.047 180.42L308.835 185.407L311.023 211.775L322.427 257.236L331.134 259.063L326.954 213.653L330.196 176.197L307.535 169.741Z" fill="#2F2E41"/>
<path d="M344.536 143.917L311.236 144.378L307.535 169.74L330.196 180.346L329.473 216.567L354.711 252.991L368.152 245.334L345.629 214.402L351.936 162.823L344.536 143.917H344.536Z" fill="#2F2E41"/>
<path d="M319.885 84.2923L314.01 91.8097L316.786 149.45L338.523 148.989L342.223 98.7267L337.598 85.8151L335.925 82.9216L333.923 79.175L321.092 80.0888L319.885 84.2923H319.885V84.2923Z" fill="#B1D4E0"/>
<path d="M311.21 119.938L312.385 131.719L310.941 145.275L309.137 148.95L305.013 163.571C305.013 163.571 300.804 169.965 310.054 170.424C319.304 170.884 349.623 167.892 349.623 167.892C349.623 167.892 353.403 167.799 351.756 159.915C349.095 155.355 350.81 148.93 350.81 148.93L347.311 136.075L348.235 124.086L354.711 92.729C348.96 88.2232 342.519 84.9983 335.517 82.8142L329.384 98.8926L320.253 84.1977L316.784 86.7339C312.106 87.9571 307.988 89.8381 304.732 92.7285L311.21 119.938Z" fill="#2F2E41"/>
<path d="M201.429 91.9701H136.156C131.682 91.965 128.056 88.3501 128.051 83.8893V55.9155C128.056 51.4547 131.682 47.8398 136.156 47.8347C156.984 42.0814 178.829 42.6206 201.429 47.8347C205.903 47.84 209.528 51.4549 209.533 55.9155V83.8893C209.528 88.3499 205.903 91.9648 201.429 91.9701H201.429Z" fill="#0064C0"/>
<path d="M208.079 121.288H129.506C128.703 121.287 128.052 120.638 128.051 119.837V100.405C128.052 99.6042 128.703 98.9553 129.506 98.9543H208.079C208.882 98.9553 209.533 99.6042 209.534 100.405V119.837C209.533 120.638 208.882 121.287 208.079 121.288V121.288ZM129.506 99.5345C129.025 99.535 128.634 99.9244 128.633 100.405V119.837C128.634 120.318 129.025 120.707 129.506 120.708H208.079C208.561 120.707 208.951 120.318 208.952 119.837V100.405C208.951 99.9244 208.561 99.535 208.079 99.5345H129.506Z" fill="#E6E6E6"/>
<path d="M153.806 106.057C153.243 106.069 152.797 106.533 152.809 107.094C152.82 107.638 153.26 108.077 153.806 108.088H201.822C202.384 108.11 202.857 107.673 202.879 107.112C202.9 106.551 202.462 106.08 201.9 106.058H153.806V106.057Z" fill="#E6E6E6"/>
<path d="M153.806 112.152C153.243 112.164 152.797 112.628 152.809 113.189C152.82 113.733 153.26 114.171 153.806 114.183H201.822C202.384 114.204 202.857 113.767 202.879 113.207C202.9 112.646 202.462 112.174 201.9 112.153H153.806V112.152Z" fill="#E6E6E6"/>
<path d="M140.317 114.184C142.568 114.184 144.392 112.365 144.392 110.121C144.392 107.878 142.568 106.059 140.317 106.059C138.067 106.059 136.243 107.878 136.243 110.121C136.243 112.365 138.067 114.184 140.317 114.184Z" fill="#E6E6E6"/>
<path d="M208.079 216.668H129.506C128.703 216.668 128.052 216.019 128.051 215.218V195.786C128.052 194.985 128.703 194.336 129.506 194.335H208.079C208.882 194.336 209.533 194.985 209.534 195.786V215.218C209.533 216.019 208.882 216.668 208.079 216.669V216.668ZM129.506 194.915C129.024 194.916 128.634 195.305 128.633 195.786V215.218C128.634 215.699 129.024 216.088 129.506 216.089L199.153 215.404C199.635 215.404 206.943 212.687 206.944 212.206L208.952 195.786C208.951 195.305 208.561 194.916 208.079 194.915H129.506Z" fill="#E6E6E6"/>
<path d="M153.806 204.335C153.243 204.323 152.777 204.768 152.766 205.329C152.754 205.89 153.2 206.354 153.762 206.366C153.777 206.366 153.791 206.366 153.806 206.366H201.822C202.384 206.387 202.857 205.95 202.879 205.39C202.9 204.829 202.462 204.357 201.9 204.336H153.806V204.335V204.335Z" fill="#E6E6E6"/>
<path d="M140.317 209.565C142.568 209.565 144.392 207.746 144.392 205.502C144.392 203.259 142.568 201.44 140.317 201.44C138.067 201.44 136.243 203.259 136.243 205.502C136.243 207.746 138.067 209.565 140.317 209.565Z" fill="#E6E6E6"/>
<path d="M208.079 176.461H129.506C128.703 176.46 128.052 175.811 128.051 175.01V155.578C128.052 154.778 128.703 154.129 129.506 154.128H208.079C208.882 154.129 209.533 154.778 209.534 155.578V175.011C209.533 175.812 208.882 176.461 208.079 176.462V176.461ZM129.506 154.708C129.024 154.709 128.634 155.098 128.633 155.578V175.011C128.634 175.491 129.024 175.881 129.506 175.881L199.153 175.197C199.635 175.197 206.943 172.479 206.944 171.999L208.952 155.578C208.951 155.098 208.561 154.709 208.079 154.708H129.506Z" fill="#E6E6E6"/>
<path d="M153.806 164.128C153.243 164.116 152.777 164.561 152.766 165.122C152.754 165.682 153.2 166.147 153.762 166.158C153.777 166.159 153.791 166.159 153.806 166.158H201.822C202.384 166.18 202.857 165.743 202.879 165.182C202.9 164.622 202.462 164.15 201.9 164.128H153.806V164.128V164.128Z" fill="#E6E6E6"/>
<path d="M140.317 169.357C142.568 169.357 144.392 167.538 144.392 165.295C144.392 163.051 142.568 161.233 140.317 161.233C138.067 161.233 136.243 163.051 136.243 165.295C136.243 167.538 138.067 169.357 140.317 169.357Z" fill="#E6E6E6"/>
<path d="M326.363 78.6419C332.703 78.6419 337.842 73.5178 337.842 67.1969C337.842 60.8759 332.703 55.7518 326.363 55.7518C320.023 55.7518 314.884 60.8759 314.884 67.1969C314.884 73.5178 320.023 78.6419 326.363 78.6419Z" fill="#F9B499"/>
<path d="M334.794 76.6006C335.426 76.7081 336.169 75.1801 336.878 73.6918C338.363 70.5764 339.307 68.5959 339.379 65.7965C339.44 63.4105 338.775 64.0367 338.128 58.7322C337.915 56.9826 334.917 56.986 334.307 56.1552C333.276 54.7519 334.858 54.1731 332.293 53.3301C327.49 51.7511 325.318 54.204 322.268 54.4154C322.191 54.4207 320.679 55.8951 319.834 55.9714C318.355 56.1049 316.22 55.8751 315.263 53.6275C314.368 51.5259 313.776 57.6672 314.575 58.4272C315.254 59.0725 316.426 60.6921 316.456 60.8099C316.489 60.9432 313.67 57.8299 313.2 59.1129C312.861 60.0363 313.927 64.7868 314.788 64.9654C315.509 65.1147 317.27 62.7482 316.872 63.7187C315.951 65.9697 321.492 67.4059 328.126 62.8877C328.361 62.7274 328.139 62.983 328.959 64.9654C329.994 67.4656 330.228 67.6011 330.209 68.2897C330.17 69.7805 329.048 70.2194 329.376 71.1986C329.642 71.9916 330.68 72.6055 331.46 72.4452C332.339 72.2642 332.49 71.1793 333.127 71.1986C333.672 71.2151 334.32 72.0341 334.377 72.8607C334.499 74.6022 331.913 75.0811 331.46 77.4317C331.204 78.7583 334.213 76.5019 334.794 76.6006Z" fill="#2F2E41"/>
<path d="M360.772 168.084C360.822 166.803 360.563 165.528 360.017 164.367L361.2 151.01L354.807 150.635L354.296 164.227C353.693 165.36 353.371 166.62 353.356 167.903C353.276 171.111 354.871 173.753 356.918 173.804C358.965 173.855 360.691 171.296 360.771 168.088L360.772 168.084Z" fill="#F9B499"/>
<path d="M347.173 114.225L352.214 129.76L353.661 161.488L362.1 161.316L362.754 126.562C362.754 126.562 358.549 100.881 357.141 95.1094C355.732 89.3374 342.748 91.4764 342.748 91.4764L347.173 114.225V114.225V114.225Z" fill="#2F2E41"/>
<path d="M138.085 73.7239C140.469 74.513 142.968 75.3119 145.513 75.1771C146.671 75.1158 147.785 74.8404 148.835 74.3507C149.912 73.8484 150.897 73.1663 151.987 72.6904C155.995 70.9415 159.97 73.9292 163.707 75.0506C165.572 75.6101 167.533 75.7439 169.357 74.9647C171.373 74.1037 172.893 72.4608 174.552 71.089C178.273 68.0134 183.127 66.3553 187.956 66.4806C193.253 66.6181 198.38 68.9508 202.027 72.7663C202.333 73.0863 202.819 72.6011 202.513 72.2817C199.326 68.9472 195.03 66.6991 190.456 66.0178C185.872 65.3351 181.113 66.2473 177.082 68.5233C175.043 69.6751 173.407 71.2517 171.61 72.723C169.86 74.1557 167.915 75.0791 165.608 74.7746C161.634 74.25 158.216 71.1968 154.094 71.4736C151.462 71.6504 149.582 73.6251 147.105 74.2546C144.15 75.0056 141.061 73.9877 138.268 73.063C137.847 72.9237 137.666 73.5854 138.085 73.7239L138.085 73.7239V73.7239Z" fill="white"/>
<path d="M145.546 77.3757C146.952 77.3757 148.092 76.2392 148.092 74.8372C148.092 73.4352 146.952 72.2986 145.546 72.2986C144.14 72.2986 143 73.4352 143 74.8372C143 76.2392 144.14 77.3757 145.546 77.3757Z" fill="white"/>
<path d="M167.527 77.4881C168.933 77.4881 170.073 76.3516 170.073 74.9496C170.073 73.5476 168.933 72.411 167.527 72.411C166.12 72.411 164.98 73.5476 164.98 74.9496C164.98 76.3516 166.12 77.4881 167.527 77.4881Z" fill="white"/>
<path d="M189.849 68.8769C191.255 68.8769 192.395 67.7403 192.395 66.3383C192.395 64.9363 191.255 63.7998 189.849 63.7998C188.442 63.7998 187.302 64.9363 187.302 66.3383C187.302 67.7403 188.442 68.8769 189.849 68.8769Z" fill="white"/>
<path d="M42.1081 154.41C34.5802 175.78 44.1716 192.616 42.1811 181.755C40.5177 172.679 68.8626 145.059 77.3946 150.754C77.2159 149.833 71.7928 133.215 71.2612 133.138C72.0049 131.271 70.9684 131.253 70.9262 130.296C70.7649 126.601 71.6264 122.765 73.3046 118.817C74.4044 115.767 74.4237 113.146 73.3578 111.033C72.4406 109.296 70.8997 107.968 69.0432 107.315L63.4523 100.583C61.996 98.8306 59.8481 95.0497 57.5659 95.0639L45.3151 94.6276C44.965 94.4178 40.6633 98.1059 36.4747 99.9157C31.9319 101.88 32.8691 107.243 32.8805 107.311L32.8911 107.375L32.941 107.421L39.6184 127.016L45.6515 132.654C45.3458 133.537 45.4224 134.201 45.9947 134.581C45.1731 135.187 41.5179 153.318 42.1081 153.953V154.41L42.1081 154.41Z" fill="#0064C0"/>
<path d="M105.058 115.628C104.147 115.991 103.336 116.565 102.693 117.304L92.9918 120.62L94.7094 125.176L104.366 121.322C105.344 121.39 106.325 121.224 107.226 120.837C109.493 119.899 110.846 117.972 110.246 116.534C109.647 115.096 107.325 114.69 105.058 115.628V115.628Z" fill="#F9B499"/>
<path d="M53.3059 101.006L75.4379 130.791L101.381 123.668L100.253 116.921L80.498 120.651L69.4772 103.759C65.8784 96.8229 58.7854 95.4262 53.3059 101.005V101.006Z" fill="#0064C0"/>
<path d="M212.262 251.198H202.163C200.399 251.198 198.964 249.767 198.964 248.009C197.049 242.823 196.808 238.171 198.964 234.284C198.964 232.526 200.399 231.095 202.163 231.095C205.149 228.935 208.631 229.591 212.262 231.095C214.026 231.095 215.461 232.526 215.461 234.284C214.236 238.681 214.325 243.269 215.461 248.009C215.461 249.767 214.026 251.198 212.262 251.198Z" fill="#0064C0"/>
<path d="M211.286 237.203H203.129C202.847 237.203 202.619 236.975 202.619 236.695C202.619 236.414 202.847 236.186 203.129 236.186H211.286C211.567 236.186 211.796 236.414 211.796 236.695C211.796 236.975 211.567 237.203 211.286 237.203Z" fill="white"/>
<path d="M211.286 241.269H203.129C202.847 241.269 202.619 241.041 202.619 240.76C202.619 240.48 202.847 240.252 203.129 240.252H211.286C211.567 240.252 211.796 240.48 211.796 240.76C211.796 241.041 211.567 241.269 211.286 241.269Z" fill="white"/>
<path d="M211.286 245.334H203.129C202.847 245.334 202.619 245.107 202.619 244.826C202.619 244.545 202.847 244.318 203.129 244.318H211.286C211.567 244.318 211.796 244.545 211.796 244.826C211.796 245.107 211.567 245.334 211.286 245.334Z" fill="white"/>
<path d="M390 269.677H0V270.446H390V269.677Z" fill="#E6E6E6"/>
<path d="M304.382 167.019C304.713 170.211 306.634 172.628 308.671 172.418C310.708 172.207 312.091 169.449 311.76 166.257C311.645 164.979 311.225 163.748 310.535 162.665L308.96 149.155L302.616 150.027L304.842 163.25C304.389 164.451 304.231 165.742 304.381 167.016L304.382 167.019Z" fill="#F9B499"/>
<path d="M313.717 112.262L316.346 89.2378C316.346 89.2378 303.233 88.1168 302.282 93.9809C301.33 99.8449 299.15 125.774 299.15 125.774L302.527 160.371L310.953 159.885L309.909 128.142L313.717 112.262V112.262Z" fill="#2F2E41"/>
<path d="M60.4201 92.0917L42.704 93.7L42.1812 75.3417L61.4817 74.7953L60.4201 92.0917Z" fill="#2F2E41"/>
<path d="M51.4615 89.6275C56.5964 89.6275 60.759 85.4773 60.759 80.3577C60.759 75.2381 56.5964 71.0879 51.4615 71.0879C46.3267 71.0879 42.1641 75.2381 42.1641 80.3577C42.1641 85.4773 46.3267 89.6275 51.4615 89.6275Z" fill="#F9B499"/>
<path d="M58.9407 71.3254C58.8752 69.0253 56.0046 68.7763 53.768 68.2086L51.7399 67.1592C49.7492 66.6539 47.6371 67.0093 45.9229 68.1379L40.5149 71.4043C38.0866 73.003 37.7009 75.5871 36.7134 78.3162L34.9262 82.3112C33.9541 84.9978 35.2386 88.5576 36.2213 91.2403L36.633 92.3645L35.9892 96.0436L47.2592 95.5189L48.2609 89.8392L46.3372 87.6831C45.6546 86.9181 45.5992 85.7822 46.2042 84.9548H46.2042C48.3803 81.9786 47.977 77.8077 47.977 77.8077L50.731 79.3055C52.5405 79.5517 54.1531 79.5247 55.5719 79.2291C57.1324 78.904 58.4584 78.2539 59.5544 77.2848L60.5363 80.5775C60.7893 84.6755 60.0212 85.7632 56.3577 89.7717L62.7821 93.793L62.5445 91.6169C61.9793 86.4401 63.7025 82.3578 63.4609 78.1445C63.2939 75.2311 61.5561 72.6354 58.9407 71.3254H58.9407H58.9407Z" fill="#2F2E41"/>
<path d="M60.4796 149.489C59.5719 149.119 58.5884 148.97 57.6114 149.056L48.3239 144.719L46.3835 149.186L56.0136 153.104C56.6697 153.831 57.4909 154.391 58.4085 154.737C60.6925 155.633 63.0082 155.185 63.5796 153.736C64.151 152.286 62.7636 150.385 60.4796 149.489H60.4796Z" fill="#F9B499"/>
<path d="M33.4546 103.12L28.6113 139.873L52.232 152.724L56.1237 147.09L39.3173 136.086L43.1652 116.303C45.4112 108.822 41.2838 102.904 33.4549 103.119L33.4546 103.12Z" fill="#0064C0"/>
</g>
<defs>
<clipPath id="clip0_167_125">
<rect width="390" height="271" fill="white"/>
</clipPath>
</defs>
</svg>
