<svg width="390" height="309" viewBox="0 0 390 309" fill="none" xmlns="http://www.w3.org/2000/svg">
<g filter="url(#filter0_d_3_176)">
<path d="M126.947 111.105H119.294V180.31H126.947V111.105Z" fill="#F0F5F8"/>
<path opacity="0.2" d="M126.947 169.333H119.294V180.315H126.947V169.333Z" fill="#09338B"/>
<path d="M67.359 111.105H59.7054V180.31H67.359V111.105Z" fill="#F0F5F8"/>
<path opacity="0.2" d="M67.359 116.175H59.7054V180.31H67.359V116.175Z" fill="#09338B"/>
<path d="M79.2514 111.105H71.5979V180.31H79.2514V111.105Z" fill="#F0F5F8"/>
<path opacity="0.2" d="M79.2514 126.936H71.5979V180.31H79.2514V126.936Z" fill="#09338B"/>
<path d="M103.225 111.105H95.572V180.31H103.225V111.105Z" fill="#F0F5F8"/>
<path opacity="0.2" d="M103.225 149.411H95.572V180.31H103.225V149.411Z" fill="#09338B"/>
<path d="M114.703 111.105H107.05V180.31H114.703V111.105Z" fill="#F0F5F8"/>
<path opacity="0.2" d="M114.703 131.023H107.05V180.31H114.703V131.023Z" fill="#09338B"/>
<path d="M90.9817 111.105H83.3282V180.31H90.9817V111.105Z" fill="#F0F5F8"/>
<path opacity="0.2" d="M90.9817 166.523H83.3282V180.315H90.9817V166.523Z" fill="#09338B"/>
<path d="M314.893 7.38327H173.242V212.049H314.893V7.38327Z" fill="#F0F5F8"/>
<path d="M216.884 159.221H165.724V294.018H216.884V159.221Z" fill="#3F4652"/>
<path opacity="0.5" d="M217.1 159.207H178.95V294.005H217.1V159.207Z" fill="black"/>
<path d="M283.774 205.162H232.614V293.996H283.774V205.162Z" fill="#3F4652"/>
<path opacity="0.3" d="M283.774 204.954H245.624V294.005H283.774V204.954Z" fill="black"/>
<path d="M149.768 183.242H98.6082V293.996H149.768V183.242Z" fill="#3F4652"/>
<path opacity="0.4" d="M149.723 183.31H111.573V294.334H149.723V183.31Z" fill="black"/>
<path d="M118.528 294.145C118.456 295.795 123.672 297.356 130.15 297.635C136.628 297.915 141.984 296.797 142.052 295.146C142.119 293.495 136.907 291.939 130.429 291.659C123.952 291.38 118.596 292.498 118.528 294.145Z" fill="#D1D4D5"/>
<path d="M118.654 291.15L118.528 294.133L142.079 295.134L142.206 292.151L118.654 291.15Z" fill="#D1D4D5"/>
<path d="M118.65 291.154C118.582 292.809 123.794 294.37 130.272 294.645C136.75 294.92 142.106 293.811 142.178 292.155C142.25 290.5 137.033 288.953 130.551 288.674C124.069 288.394 118.722 289.512 118.65 291.154Z" fill="#D1D4D5"/>
<path opacity="0.4" d="M118.65 291.154C118.582 292.809 123.794 294.37 130.272 294.645C136.75 294.92 142.106 293.811 142.178 292.155C142.25 290.5 137.033 288.953 130.551 288.674C124.069 288.394 118.722 289.512 118.65 291.154Z" fill="white"/>
<path d="M120.154 291.109C120.154 291.215 120.189 291.318 120.253 291.402C121.028 290.433 125.344 289.851 130.493 290.076C135.641 290.302 139.889 291.235 140.547 292.264C140.624 292.188 140.669 292.087 140.673 291.98C140.718 290.861 136.168 289.724 130.479 289.503C124.79 289.282 120.199 290.009 120.154 291.109Z" fill="#D1D4D5"/>
<path opacity="0.4" d="M120.154 291.109C120.154 291.215 120.189 291.318 120.253 291.402C121.028 290.433 125.344 289.851 130.493 290.076C135.641 290.302 139.889 291.235 140.547 292.264C140.624 292.188 140.669 292.087 140.673 291.98C140.718 290.861 136.168 289.724 130.479 289.503C124.79 289.282 120.199 290.009 120.154 291.109Z" fill="#D1D4D5"/>
<path opacity="0.4" d="M120.276 291.402C120.983 292.435 125.231 293.369 130.353 293.585C135.475 293.802 139.813 293.233 140.588 292.264C139.898 291.235 135.659 290.302 130.515 290.076C125.371 289.851 121.046 290.433 120.276 291.402Z" fill="#D1D4D5"/>
<path d="M116.023 289.621C115.951 291.271 121.168 292.832 127.646 293.112C134.123 293.391 139.479 292.273 139.552 290.627C139.624 288.98 134.403 287.415 127.925 287.136C121.447 286.856 116.122 287.975 116.023 289.621Z" fill="#D1D4D5"/>
<path d="M116.179 286.64L116.053 289.623L139.605 290.624L139.731 287.641L116.179 286.64Z" fill="#D1D4D5"/>
<path d="M116.177 286.639C116.109 288.286 121.325 289.846 127.803 290.126C134.281 290.405 139.637 289.287 139.705 287.641C139.772 285.994 134.56 284.429 128.083 284.15C121.605 283.87 116.249 284.989 116.177 286.639Z" fill="#D1D4D5"/>
<path opacity="0.4" d="M116.177 286.639C116.109 288.286 121.325 289.846 127.803 290.126C134.281 290.405 139.637 289.287 139.705 287.641C139.772 285.994 134.56 284.429 128.083 284.15C121.605 283.87 116.249 284.989 116.177 286.639Z" fill="white"/>
<path d="M117.681 286.585C117.679 286.692 117.714 286.796 117.78 286.879C118.555 285.909 122.875 285.327 128.019 285.562C133.164 285.796 137.421 286.712 138.092 287.74C138.165 287.664 138.21 287.565 138.218 287.46C138.263 286.346 133.713 285.205 128.028 284.98C122.343 284.754 117.726 285.467 117.681 286.585Z" fill="#D1D4D5"/>
<path opacity="0.4" d="M117.681 286.585C117.679 286.692 117.714 286.796 117.78 286.879C118.555 285.909 122.875 285.327 128.019 285.562C133.164 285.796 137.421 286.712 138.092 287.74C138.165 287.664 138.21 287.565 138.218 287.46C138.263 286.346 133.713 285.205 128.028 284.98C122.343 284.754 117.726 285.467 117.681 286.585Z" fill="#D1D4D5"/>
<path opacity="0.4" d="M117.78 286.878C118.478 287.911 122.735 288.845 127.857 289.061C132.979 289.278 137.317 288.71 138.092 287.74C137.403 286.712 133.164 285.778 128.019 285.562C122.875 285.345 118.564 285.909 117.78 286.878Z" fill="#D1D4D5"/>
<path d="M116.37 284.172C116.303 285.823 121.519 287.384 127.997 287.663C134.475 287.943 139.831 286.824 139.898 285.174C139.966 283.523 134.754 281.967 128.276 281.692C121.798 281.417 116.442 282.526 116.37 284.172Z" fill="#D1D4D5"/>
<path d="M116.504 281.191L116.378 284.174L139.93 285.175L140.056 282.192L116.504 281.191Z" fill="#D1D4D5"/>
<path d="M116.496 281.187C116.424 282.837 121.641 284.398 128.119 284.678C134.596 284.957 139.943 283.839 140.015 282.192C140.088 280.546 134.871 278.981 128.389 278.701C121.907 278.422 116.564 279.54 116.496 281.187Z" fill="#D1D4D5"/>
<path opacity="0.4" d="M116.496 281.187C116.424 282.837 121.641 284.398 128.119 284.678C134.596 284.957 139.943 283.839 140.015 282.192C140.088 280.546 134.871 278.981 128.389 278.701C121.907 278.422 116.564 279.54 116.496 281.187Z" fill="white"/>
<path d="M118.023 281.137C118.022 281.245 118.057 281.35 118.123 281.435C118.897 280.465 123.213 279.883 128.357 280.113C133.502 280.343 137.759 281.263 138.434 282.296C138.472 282.26 138.502 282.216 138.523 282.168C138.544 282.12 138.555 282.069 138.556 282.016C138.605 280.898 134.051 279.761 128.366 279.531C122.681 279.301 118.046 280.023 118.023 281.137Z" fill="#D1D4D5"/>
<path opacity="0.4" d="M118.023 281.137C118.022 281.245 118.057 281.35 118.123 281.435C118.897 280.465 123.213 279.883 128.357 280.113C133.502 280.343 137.759 281.263 138.434 282.296C138.472 282.26 138.502 282.216 138.523 282.168C138.544 282.12 138.555 282.069 138.556 282.016C138.605 280.898 134.051 279.761 128.366 279.531C122.681 279.301 118.046 280.023 118.023 281.137Z" fill="#D1D4D5"/>
<path opacity="0.4" d="M118.1 281.439C118.803 282.472 123.055 283.401 128.173 283.618C133.29 283.834 137.632 283.27 138.412 282.301C137.723 281.268 133.484 280.334 128.335 280.118C123.186 279.901 118.888 280.478 118.1 281.439Z" fill="#D1D4D5"/>
<path d="M113.897 279.658C113.83 281.304 119.046 282.86 125.524 283.14C132.002 283.419 137.358 282.301 137.425 280.659C137.493 279.017 132.281 277.448 125.803 277.168C119.325 276.888 113.969 278.002 113.897 279.658Z" fill="#D1D4D5"/>
<path d="M114.02 276.649L113.894 279.632L137.446 280.632L137.572 277.649L114.02 276.649Z" fill="#D1D4D5"/>
<path d="M114.023 276.672C113.956 278.314 119.168 279.874 125.645 280.154C132.123 280.433 137.479 279.315 137.551 277.669C137.623 276.022 132.407 274.457 125.925 274.178C119.442 273.898 114.091 275.048 114.023 276.672Z" fill="#D1D4D5"/>
<path opacity="0.4" d="M114.023 276.672C113.956 278.314 119.168 279.874 125.645 280.154C132.123 280.433 137.479 279.315 137.551 277.669C137.623 276.022 132.407 274.457 125.925 274.178C119.442 273.898 114.091 275.048 114.023 276.672Z" fill="white"/>
<path d="M115.528 276.6C115.525 276.706 115.56 276.81 115.627 276.893C116.402 275.923 120.717 275.341 125.866 275.576C131.015 275.81 135.263 276.726 135.939 277.754C136.01 277.677 136.054 277.579 136.065 277.475C136.11 276.361 131.56 275.22 125.871 274.994C120.181 274.769 115.573 275.499 115.528 276.6Z" fill="#D1D4D5"/>
<path opacity="0.4" d="M115.528 276.6C115.525 276.706 115.56 276.81 115.627 276.893C116.402 275.923 120.717 275.341 125.866 275.576C131.015 275.81 135.263 276.726 135.939 277.754C136.01 277.677 136.054 277.579 136.065 277.475C136.11 276.361 131.56 275.22 125.871 274.994C120.181 274.769 115.573 275.499 115.528 276.6Z" fill="#D1D4D5"/>
<path opacity="0.4" d="M115.627 276.929C116.325 277.962 120.582 278.891 125.704 279.107C130.826 279.324 135.164 278.76 135.939 277.79C135.249 276.758 131.011 275.828 125.866 275.607C120.722 275.386 116.411 275.941 115.627 276.929Z" fill="#D1D4D5"/>
<path d="M271.184 298.014C271.062 299.665 265.701 300.617 259.237 300.152C252.773 299.688 247.574 297.965 247.696 296.314C247.818 294.663 253.174 293.721 259.643 294.185C266.111 294.65 271.314 296.373 271.184 298.014Z" fill="#D1D4D5"/>
<path d="M247.886 293.305L247.671 296.283L271.183 297.987L271.398 295.009L247.886 293.305Z" fill="#D1D4D5"/>
<path d="M271.413 295.033C271.296 296.684 265.936 297.635 259.467 297.171C252.998 296.706 247.809 294.979 247.926 293.333C248.043 291.686 253.404 290.739 259.872 291.204C266.341 291.668 271.535 293.391 271.413 295.033Z" fill="#D1D4D5"/>
<path opacity="0.4" d="M271.413 295.033C271.296 296.684 265.936 297.635 259.467 297.171C252.998 296.706 247.809 294.979 247.926 293.333C248.043 291.686 253.404 290.739 259.872 291.204C266.341 291.668 271.535 293.391 271.413 295.033Z" fill="white"/>
<path d="M269.927 294.817C269.914 294.922 269.866 295.02 269.792 295.096C269.134 294.045 264.913 292.972 259.773 292.607C254.633 292.241 250.313 292.674 249.516 293.626C249.451 293.539 249.419 293.432 249.426 293.324C249.507 292.21 254.16 291.623 259.832 292.034C265.503 292.444 270.008 293.698 269.927 294.817Z" fill="#D1D4D5"/>
<path opacity="0.4" d="M269.927 294.817C269.914 294.922 269.866 295.02 269.792 295.096C269.134 294.045 264.913 292.972 259.773 292.607C254.633 292.241 250.313 292.674 249.516 293.626C249.451 293.539 249.419 293.432 249.426 293.324C249.507 292.21 254.16 291.623 259.832 292.034C265.503 292.444 270.008 293.698 269.927 294.817Z" fill="#D1D4D5"/>
<path opacity="0.4" d="M269.792 295.096C268.972 296.039 264.656 296.481 259.535 296.107C254.413 295.732 250.174 294.677 249.516 293.626C250.318 292.679 254.638 292.237 259.773 292.607C264.909 292.976 269.116 294.041 269.792 295.096Z" fill="#D1D4D5"/>
<path d="M274.202 293.806C274.08 295.457 268.72 296.409 262.251 295.944C255.782 295.48 250.593 293.757 250.71 292.115C250.827 290.473 256.192 289.513 262.661 289.977C269.13 290.442 274.287 292.165 274.202 293.806Z" fill="#D1D4D5"/>
<path d="M250.855 289.109L250.64 292.087L274.152 293.791L274.367 290.813L250.855 289.109Z" fill="#D1D4D5"/>
<path d="M274.387 290.83C274.269 292.471 268.909 293.423 262.44 292.958C255.971 292.494 250.782 290.771 250.899 289.129C251.016 287.487 256.377 286.527 262.845 286.991C269.314 287.456 274.508 289.183 274.387 290.83Z" fill="#D1D4D5"/>
<path opacity="0.4" d="M274.387 290.83C274.269 292.471 268.909 293.423 262.44 292.958C255.971 292.494 250.782 290.771 250.899 289.129C251.016 287.487 256.377 286.527 262.845 286.991C269.314 287.456 274.508 289.183 274.387 290.83Z" fill="white"/>
<path d="M272.9 290.604C272.891 290.712 272.843 290.813 272.765 290.888C272.107 289.833 267.886 288.759 262.746 288.403C257.607 288.047 253.287 288.466 252.489 289.413C252.426 289.329 252.394 289.225 252.399 289.12C252.48 288.006 257.134 287.411 262.805 287.821C268.476 288.232 272.986 289.49 272.9 290.604Z" fill="#D1D4D5"/>
<path opacity="0.4" d="M272.9 290.604C272.891 290.712 272.843 290.813 272.765 290.888C272.107 289.833 267.886 288.759 262.746 288.403C257.607 288.047 253.287 288.466 252.489 289.413C252.426 289.329 252.394 289.225 252.399 289.12C252.48 288.006 257.134 287.411 262.805 287.821C268.476 288.232 272.986 289.49 272.9 290.604Z" fill="#D1D4D5"/>
<path opacity="0.4" d="M272.765 290.911C271.954 291.853 267.629 292.291 262.508 291.921C257.386 291.551 253.165 290.46 252.489 289.413C253.291 288.466 257.611 288.029 262.746 288.403C267.882 288.777 272.085 289.833 272.765 290.911Z" fill="#D1D4D5"/>
<path d="M274.477 288.358C274.355 290.009 268.999 290.96 262.53 290.496C256.061 290.031 250.867 288.304 250.989 286.653C251.111 285.002 256.467 284.06 262.936 284.529C269.404 284.998 274.594 286.716 274.477 288.358Z" fill="#D1D4D5"/>
<path d="M251.162 283.655L250.946 286.633L274.458 288.337L274.673 285.359L251.162 283.655Z" fill="#D1D4D5"/>
<path d="M274.693 285.377C274.576 287.027 269.215 287.979 262.746 287.51C256.278 287.041 251.097 285.322 251.214 283.681C251.331 282.039 256.692 281.083 263.161 281.547C269.63 282.012 274.814 283.735 274.693 285.377Z" fill="#D1D4D5"/>
<path opacity="0.4" d="M274.693 285.377C274.576 287.027 269.215 287.979 262.746 287.51C256.278 287.041 251.097 285.322 251.214 283.681C251.331 282.039 256.692 281.083 263.161 281.547C269.63 282.012 274.814 283.735 274.693 285.377Z" fill="white"/>
<path d="M273.206 285.156C273.194 285.263 273.147 285.363 273.071 285.44C272.413 284.384 268.193 283.315 263.053 282.955C257.913 282.594 253.593 283.018 252.795 283.965C252.729 283.884 252.696 283.781 252.705 283.676C252.786 282.558 257.444 281.962 263.111 282.377C268.778 282.792 273.287 284.042 273.206 285.156Z" fill="#D1D4D5"/>
<path opacity="0.4" d="M273.206 285.156C273.194 285.263 273.147 285.363 273.071 285.44C272.413 284.384 268.193 283.315 263.053 282.955C257.913 282.594 253.593 283.018 252.795 283.965C252.729 283.884 252.696 283.781 252.705 283.676C252.786 282.558 257.444 281.962 263.111 282.377C268.778 282.792 273.287 284.042 273.206 285.156Z" fill="#D1D4D5"/>
<path opacity="0.4" d="M273.071 285.44C272.256 286.382 267.936 286.82 262.814 286.45C257.692 286.08 253.458 285.02 252.795 283.965C253.602 283.018 257.917 282.58 263.053 282.955C268.188 283.329 272.395 284.398 273.071 285.44Z" fill="#D1D4D5"/>
<path d="M277.45 284.145C277.328 285.787 271.972 286.739 265.503 286.274C259.034 285.81 253.841 284.087 253.962 282.445C254.084 280.803 259.44 279.842 265.909 280.307C272.377 280.772 277.567 282.504 277.45 284.145Z" fill="#D1D4D5"/>
<path d="M254.145 279.434L253.93 282.412L277.441 284.116L277.657 281.138L254.145 279.434Z" fill="#D1D4D5"/>
<path d="M277.666 281.173C277.549 282.815 272.188 283.766 265.719 283.302C259.251 282.837 254.061 281.114 254.178 279.473C254.296 277.831 259.661 276.87 266.125 277.335C272.589 277.799 277.783 279.554 277.666 281.173Z" fill="#D1D4D5"/>
<path opacity="0.4" d="M277.666 281.173C277.549 282.815 272.188 283.766 265.719 283.302C259.251 282.837 254.061 281.114 254.178 279.473C254.296 277.831 259.661 276.87 266.125 277.335C272.589 277.799 277.783 279.554 277.666 281.173Z" fill="white"/>
<path opacity="0.4" d="M276.044 281.227C275.233 282.174 270.909 282.612 265.787 282.238C260.665 281.863 256.426 280.808 255.769 279.757C256.57 278.81 260.89 278.372 266.026 278.747C271.161 279.121 275.378 280.176 276.044 281.227Z" fill="#D1D4D5"/>
<path d="M117.672 275.824C117.605 277.47 122.821 279.026 129.299 279.306C135.777 279.585 141.133 278.471 141.2 276.825C141.268 275.179 136.042 273.614 129.578 273.321C123.114 273.028 117.744 274.173 117.672 275.824Z" fill="#D1D4D5"/>
<path d="M117.805 272.837L117.679 275.82L141.231 276.821L141.357 273.838L117.805 272.837Z" fill="#D1D4D5"/>
<path d="M117.807 272.838C117.735 274.48 122.952 276.04 129.429 276.32C135.907 276.6 141.263 275.481 141.331 273.839C141.398 272.198 136.186 270.624 129.709 270.344C123.231 270.064 117.875 271.169 117.807 272.838Z" fill="#D1D4D5"/>
<path opacity="0.4" d="M117.807 272.838C117.735 274.48 122.952 276.04 129.429 276.32C135.907 276.6 141.263 275.481 141.331 273.839C141.398 272.198 136.186 270.624 129.709 270.344C123.231 270.064 117.875 271.169 117.807 272.838Z" fill="white"/>
<path d="M119.303 272.784C119.304 272.89 119.339 272.992 119.402 273.077C120.177 272.108 124.501 271.526 129.637 271.76C134.772 271.995 139.047 272.906 139.714 273.939C139.789 273.864 139.835 273.765 139.844 273.659C139.889 272.54 135.34 271.404 129.655 271.178C123.97 270.953 119.375 271.665 119.303 272.784Z" fill="#D1D4D5"/>
<path opacity="0.4" d="M119.303 272.784C119.304 272.89 119.339 272.992 119.402 273.077C120.177 272.108 124.501 271.526 129.637 271.76C134.772 271.995 139.047 272.906 139.714 273.939C139.789 273.864 139.835 273.765 139.844 273.659C139.889 272.54 135.34 271.404 129.655 271.178C123.97 270.953 119.375 271.665 119.303 272.784Z" fill="#D1D4D5"/>
<path opacity="0.4" d="M119.402 273.077C120.105 274.11 124.357 275.039 129.474 275.256C134.592 275.472 138.934 274.908 139.714 273.939C139.029 272.906 134.786 271.977 129.637 271.76C124.488 271.544 120.19 272.107 119.402 273.077Z" fill="#D1D4D5"/>
<path d="M115.199 271.3C115.131 272.946 120.348 274.511 126.826 274.782C133.303 275.053 138.66 273.948 138.727 272.301C138.795 270.655 133.583 269.09 127.105 268.811C120.627 268.531 115.249 269.618 115.199 271.3Z" fill="#D1D4D5"/>
<path d="M115.326 268.304L115.2 271.287L138.751 272.288L138.878 269.305L115.326 268.304Z" fill="#D1D4D5"/>
<path d="M115.321 268.314C115.253 269.956 120.465 271.526 126.943 271.796C133.421 272.067 138.777 270.966 138.849 269.316C138.921 267.665 133.704 266.1 127.222 265.825C120.74 265.55 115.397 266.659 115.321 268.314Z" fill="#D1D4D5"/>
<path opacity="0.4" d="M115.321 268.314C115.253 269.956 120.465 271.526 126.943 271.796C133.421 272.067 138.777 270.966 138.849 269.316C138.921 267.665 133.704 266.1 127.222 265.825C120.74 265.55 115.397 266.659 115.321 268.314Z" fill="white"/>
<path d="M116.798 268.26C116.796 268.367 116.831 268.47 116.897 268.553C117.672 267.584 121.988 267.002 127.136 267.236C132.285 267.471 136.533 268.382 137.209 269.424C137.284 269.346 137.329 269.243 137.335 269.135C137.38 268.017 132.83 266.88 127.141 266.655C121.452 266.429 116.875 267.142 116.798 268.26Z" fill="#D1D4D5"/>
<path opacity="0.4" d="M116.798 268.26C116.796 268.367 116.831 268.47 116.897 268.553C117.672 267.584 121.988 267.002 127.136 267.236C132.285 267.471 136.533 268.382 137.209 269.424C137.284 269.346 137.329 269.243 137.335 269.135C137.38 268.017 132.83 266.88 127.141 266.655C121.452 266.429 116.875 267.142 116.798 268.26Z" fill="#D1D4D5"/>
<path opacity="0.4" d="M116.929 268.553C117.636 269.586 121.884 270.515 127.006 270.741C132.128 270.966 136.466 270.394 137.241 269.424C136.551 268.382 132.312 267.453 127.168 267.236C122.024 267.02 117.722 267.584 116.929 268.553Z" fill="#D1D4D5"/>
<path d="M83.4048 292.715C83.3282 294.365 88.5446 295.926 95.0314 296.197C101.518 296.467 106.856 295.367 106.924 293.716C106.991 292.065 101.788 290.5 95.3017 290.23C88.8149 289.959 83.4768 291.046 83.4048 292.715Z" fill="#D1D4D5"/>
<path d="M83.544 288.936L83.4247 291.922L106.998 292.866L107.117 289.88L83.544 288.936Z" fill="#D1D4D5"/>
<path d="M83.5309 289.711C83.4588 291.366 88.6753 292.927 95.153 293.202C101.631 293.477 106.987 292.368 107.054 290.712C107.122 289.057 101.91 287.501 95.4323 287.23C88.9546 286.96 83.5985 288.06 83.5309 289.711Z" fill="#D1D4D5"/>
<path opacity="0.4" d="M83.5309 289.711C83.4588 291.366 88.6753 292.927 95.153 293.202C101.631 293.477 106.987 292.368 107.054 290.712C107.122 289.057 101.91 287.501 95.4323 287.23C88.9546 286.96 83.5985 288.06 83.5309 289.711Z" fill="white"/>
<path d="M85.0264 289.657C85.0221 289.711 85.0287 289.765 85.0457 289.816C85.0628 289.867 85.0899 289.914 85.1255 289.955C85.9003 288.985 90.2158 288.403 95.3647 288.633C100.514 288.863 104.762 289.792 105.437 290.82C105.508 290.742 105.551 290.642 105.559 290.536C105.608 289.418 101.054 288.281 95.3692 288.06C89.6843 287.839 85.0805 288.543 85.0264 289.657Z" fill="#D1D4D5"/>
<path opacity="0.4" d="M85.0264 289.657C85.0221 289.711 85.0287 289.765 85.0457 289.816C85.0628 289.867 85.0899 289.914 85.1255 289.955C85.9003 288.985 90.2158 288.403 95.3647 288.633C100.514 288.863 104.762 289.792 105.437 290.82C105.508 290.742 105.551 290.642 105.559 290.536C105.608 289.418 101.054 288.281 95.3692 288.06C89.6843 287.839 85.0805 288.543 85.0264 289.657Z" fill="#D1D4D5"/>
<path opacity="0.4" d="M85.139 289.955C85.8373 290.983 90.0942 291.925 95.2116 292.142C100.329 292.358 104.671 291.79 105.451 290.82C104.762 289.792 100.523 288.85 95.3737 288.633C90.2249 288.417 85.9138 289.016 85.139 289.955Z" fill="#D1D4D5"/>
<path d="M93.6485 289.792C93.2611 291.398 98.0901 293.919 104.424 295.421C110.757 296.923 116.199 296.851 116.586 295.245C116.974 293.639 112.136 291.118 105.807 289.612C99.4776 288.105 94.0314 288.205 93.6485 289.792Z" fill="#D1D4D5"/>
<path d="M94.3391 286.9L93.649 289.804L116.582 295.266L117.272 292.361L94.3391 286.9Z" fill="#D1D4D5"/>
<path d="M94.3241 286.878C93.9367 288.489 98.7658 291.01 105.095 292.521C111.424 294.032 116.875 293.951 117.258 292.345C117.641 290.739 112.834 288.236 106.496 286.685C100.158 285.133 94.7206 285.273 94.3241 286.878Z" fill="#D1D4D5"/>
<path opacity="0.4" d="M94.3241 286.878C93.9367 288.489 98.7658 291.01 105.095 292.521C111.424 294.032 116.875 293.951 117.258 292.345C117.641 290.739 112.834 288.236 106.496 286.685C100.158 285.133 94.7206 285.273 94.3241 286.878Z" fill="white"/>
<path d="M95.8197 287.113C95.797 287.219 95.813 287.329 95.8648 287.424C96.8198 286.649 101.158 286.879 106.167 288.074C111.176 289.269 115.176 290.992 115.658 292.133C115.745 292.069 115.808 291.979 115.839 291.876C116.091 290.789 111.829 288.827 106.298 287.51C100.766 286.193 96.0855 286.026 95.8197 287.113Z" fill="#D1D4D5"/>
<path opacity="0.4" d="M95.8197 287.113C95.797 287.219 95.813 287.329 95.8648 287.424C96.8198 286.649 101.158 286.879 106.167 288.074C111.176 289.269 115.176 290.992 115.658 292.133C115.745 292.069 115.808 291.979 115.839 291.876C116.091 290.789 111.829 288.827 106.298 287.51C100.766 286.193 96.0855 286.026 95.8197 287.113Z" fill="#D1D4D5"/>
<path opacity="0.4" d="M95.8738 287.46C96.3693 288.61 100.351 290.333 105.365 291.52C110.379 292.706 114.721 292.981 115.667 292.174C115.185 291.032 111.194 289.31 106.172 288.114C101.149 286.919 96.8198 286.617 95.8738 287.46Z" fill="#D1D4D5"/>
<path d="M123.542 270.317C129.406 270.317 134.159 265.557 134.159 259.686C134.159 253.815 129.406 249.056 123.542 249.056C117.678 249.056 112.924 253.815 112.924 259.686C112.924 265.557 117.678 270.317 123.542 270.317Z" fill="#D1D4D5"/>
<path d="M124.812 270.317C130.676 270.317 135.43 265.557 135.43 259.686C135.43 253.815 130.676 249.056 124.812 249.056C118.948 249.056 114.194 253.815 114.194 259.686C114.194 265.557 118.948 270.317 124.812 270.317Z" fill="#D1D4D5"/>
<path opacity="0.5" d="M124.812 270.317C130.676 270.317 135.43 265.557 135.43 259.686C135.43 253.815 130.676 249.056 124.812 249.056C118.948 249.056 114.194 253.815 114.194 259.686C114.194 265.557 118.948 270.317 124.812 270.317Z" fill="white"/>
<path d="M130.434 265.317C133.539 262.208 133.539 257.167 130.434 254.059C127.329 250.95 122.295 250.95 119.19 254.059C116.085 257.167 116.085 262.208 119.19 265.317C122.295 268.425 127.329 268.425 130.434 265.317Z" fill="#D1D4D5"/>
<path opacity="0.3" d="M128.028 262.316C127.706 262.648 127.318 262.909 126.889 263.083C126.46 263.257 126 263.34 125.537 263.326C124.83 263.347 124.133 263.151 123.54 262.764C122.948 262.377 122.487 261.818 122.222 261.161H126.501V260.259H121.997C121.997 260.121 121.997 259.981 121.997 259.84C121.997 259.698 121.997 259.558 121.997 259.42H126.501V258.518H122.231C122.497 257.86 122.959 257.299 123.553 256.912C124.148 256.525 124.846 256.33 125.555 256.353C126.017 256.337 126.476 256.417 126.905 256.59C127.333 256.762 127.72 257.023 128.042 257.354L128.168 257.476L129.028 256.633L128.911 256.507C128.471 256.055 127.94 255.702 127.354 255.469C126.768 255.236 126.14 255.128 125.51 255.153C124.472 255.112 123.449 255.42 122.606 256.03C121.763 256.639 121.149 257.513 120.861 258.514H119.348V259.416H120.699V260.241H119.348V261.143H120.857C121.146 262.142 121.761 263.016 122.603 263.625C123.446 264.234 124.467 264.543 125.506 264.503C126.136 264.527 126.765 264.42 127.351 264.187C127.938 263.954 128.469 263.601 128.911 263.15L129.024 263.024L128.164 262.18L128.028 262.316Z" fill="white"/>
<path d="M299.451 290.735C299.212 291.704 295.928 291.713 292.113 290.735C288.297 289.756 285.405 288.214 285.644 287.253C285.883 286.292 289.176 286.274 292.991 287.253C296.807 288.232 299.685 289.792 299.451 290.735Z" fill="#407BFF"/>
<path d="M286.092 285.527L285.653 287.281L299.462 290.744L299.901 288.989L286.092 285.527Z" fill="#407BFF"/>
<path d="M299.892 289.016C299.644 289.986 296.361 289.991 292.55 289.016C288.739 288.042 285.847 286.5 286.085 285.53C286.324 284.56 289.612 284.551 293.423 285.53C297.234 286.509 300.135 288.02 299.892 289.016Z" fill="#407BFF"/>
<path opacity="0.4" d="M299.892 289.016C299.644 289.986 296.361 289.991 292.55 289.016C288.739 288.042 285.847 286.5 286.085 285.53C286.324 284.56 289.612 284.551 293.423 285.53C297.234 286.509 300.135 288.02 299.892 289.016Z" fill="white"/>
<path d="M299.027 288.696C299.021 288.728 299.008 288.758 298.989 288.784C298.97 288.81 298.947 288.833 298.919 288.849C298.631 288.155 296.216 287.081 293.221 286.328C290.225 285.575 287.581 285.381 287.022 285.877C287.01 285.816 287.01 285.753 287.022 285.692C287.193 285.034 290.022 285.174 293.356 286.004C296.689 286.833 299.199 288.042 299.027 288.696Z" fill="#407BFF"/>
<path opacity="0.4" d="M299.027 288.696C299.021 288.728 299.008 288.758 298.989 288.784C298.97 288.81 298.947 288.833 298.919 288.849C298.631 288.155 296.216 287.081 293.221 286.328C290.225 285.575 287.581 285.381 287.022 285.877C287.01 285.816 287.01 285.753 287.022 285.692C287.193 285.034 290.022 285.174 293.356 286.004C296.689 286.833 299.199 288.042 299.027 288.696Z" fill="#407BFF"/>
<path opacity="0.4" d="M298.91 288.849C298.329 289.323 295.716 289.138 292.712 288.398C289.707 287.659 287.306 286.567 287.009 285.877C287.59 285.395 290.198 285.584 293.207 286.328C296.216 287.072 298.631 288.155 298.91 288.849Z" fill="#407BFF"/>
<path d="M306.086 293.919C306.131 294.911 302.987 295.858 299.05 296.021C295.113 296.183 291.905 295.516 291.842 294.523C291.779 293.531 294.942 292.584 298.879 292.413C302.816 292.241 306.046 292.895 306.086 293.919Z" fill="#D1D4D5"/>
<path d="M305.566 293.128L291.331 293.698L291.403 295.506L305.638 294.936L305.566 293.128Z" fill="#D1D4D5"/>
<path d="M306.01 292.119C306.055 293.121 302.91 294.059 298.978 294.23C295.045 294.402 291.833 293.725 291.77 292.724C291.707 291.723 294.869 290.784 298.807 290.622C302.744 290.46 305.969 291.118 306.01 292.119Z" fill="#D1D4D5"/>
<path opacity="0.4" d="M306.01 292.119C306.055 293.121 302.91 294.059 298.978 294.23C295.045 294.402 291.833 293.725 291.77 292.724C291.707 291.723 294.869 290.784 298.807 290.622C302.744 290.46 305.969 291.118 306.01 292.119Z" fill="white"/>
<path d="M305.109 292.119C305.113 292.152 305.11 292.184 305.099 292.215C305.088 292.246 305.069 292.273 305.046 292.295C304.595 291.714 301.946 291.366 298.847 291.52C295.748 291.673 293.167 292.219 292.748 292.841C292.706 292.793 292.682 292.733 292.68 292.67C292.68 291.993 295.383 291.317 298.834 291.172C302.284 291.028 305.109 291.402 305.109 292.119Z" fill="#D1D4D5"/>
<path opacity="0.4" d="M305.109 292.119C305.113 292.152 305.11 292.184 305.099 292.215C305.088 292.246 305.069 292.273 305.046 292.295C304.595 291.714 301.946 291.366 298.847 291.52C295.748 291.673 293.167 292.219 292.748 292.841C292.706 292.793 292.682 292.733 292.68 292.67C292.68 291.993 295.383 291.317 298.834 291.172C302.284 291.028 305.109 291.402 305.109 292.119Z" fill="#D1D4D5"/>
<path opacity="0.4" d="M305.041 292.264C304.622 292.882 302.054 293.45 298.951 293.581C295.847 293.712 293.239 293.373 292.748 292.805C293.167 292.183 295.734 291.619 298.847 291.488C301.96 291.357 304.568 291.677 305.041 292.264Z" fill="#D1D4D5"/>
<path d="M289.725 295.159C295.589 295.159 300.343 290.4 300.343 284.529C300.343 278.658 295.589 273.898 289.725 273.898C283.861 273.898 279.108 278.658 279.108 284.529C279.108 290.4 283.861 295.159 289.725 295.159Z" fill="#D1D4D5"/>
<path d="M298.617 292.489C297.22 294.059 295.389 295.178 293.356 295.706C291.323 296.233 289.179 296.145 287.196 295.453C285.213 294.761 283.479 293.495 282.215 291.816C280.95 290.137 280.211 288.121 280.092 286.021C279.972 283.922 280.477 281.834 281.542 280.022C282.608 278.21 284.186 276.755 286.077 275.841C287.969 274.927 290.088 274.595 292.168 274.888C294.248 275.18 296.195 276.084 297.762 277.484C299.861 279.361 301.13 281.996 301.29 284.809C301.451 287.623 300.489 290.385 298.617 292.489Z" fill="#D1D4D5"/>
<path opacity="0.4" d="M298.617 292.489C297.22 294.059 295.389 295.178 293.356 295.706C291.323 296.233 289.179 296.145 287.196 295.453C285.213 294.761 283.479 293.495 282.215 291.816C280.95 290.137 280.211 288.121 280.092 286.021C279.972 283.922 280.477 281.834 281.542 280.022C282.608 278.21 284.186 276.755 286.077 275.841C287.969 274.927 290.088 274.595 292.168 274.888C294.248 275.18 296.195 276.084 297.762 277.484C299.861 279.361 301.13 281.996 301.29 284.809C301.451 287.623 300.489 290.385 298.617 292.489Z" fill="white"/>
<path d="M296.586 290.712C295.538 291.886 294.165 292.722 292.642 293.115C291.12 293.508 289.515 293.439 288.03 292.919C286.546 292.398 285.25 291.449 284.304 290.191C283.359 288.932 282.808 287.421 282.72 285.849C282.633 284.277 283.013 282.714 283.812 281.359C284.612 280.003 285.795 278.915 287.212 278.232C288.629 277.55 290.217 277.303 291.774 277.524C293.331 277.745 294.788 278.423 295.96 279.473C297.533 280.876 298.485 282.848 298.606 284.953C298.728 287.059 298.009 289.128 296.608 290.703L296.586 290.712Z" fill="#D1D4D5"/>
<g opacity="0.3">
<path d="M292.167 289.016C291.221 290.568 289.54 290.604 287.797 289.291L286.806 290.356L285.815 289.481L286.815 288.417C286.019 287.599 285.427 286.606 285.085 285.516L286.635 284.687C286.884 285.606 287.347 286.453 287.986 287.158L289.536 285.53C288.815 284.398 288.072 283.072 288.923 281.692C289.86 280.176 291.572 280.136 293.333 281.466L294.333 280.402L295.315 281.304L294.329 282.341C294.949 282.997 295.428 283.772 295.739 284.619L294.261 285.498C294.035 284.791 293.66 284.141 293.162 283.591L291.572 285.295C292.252 286.4 292.973 287.695 292.167 289.016ZM290.815 284.15L292.117 282.761C291.473 282.382 290.937 282.449 290.658 282.878C290.571 283.084 290.54 283.309 290.567 283.531C290.595 283.752 290.68 283.963 290.815 284.141V284.15ZM290.396 287.889C290.48 287.694 290.51 287.481 290.484 287.271C290.458 287.061 290.376 286.862 290.248 286.694L289.009 288.015C289.621 288.353 290.122 288.308 290.396 287.88V287.889Z" fill="white"/>
</g>
<path d="M159.251 294.902C159.21 295.895 162.35 296.842 166.287 297.004C170.224 297.166 173.431 296.503 173.468 295.507C173.504 294.51 170.368 293.567 166.44 293.396C162.512 293.224 159.296 293.901 159.251 294.902Z" fill="#D1D4D5"/>
<path d="M159.329 293.103L159.253 294.91L173.475 295.514L173.551 293.707L159.329 293.103Z" fill="#D1D4D5"/>
<path d="M159.327 293.094C159.282 294.095 162.426 295.033 166.364 295.204C170.301 295.376 173.508 294.699 173.549 293.702C173.589 292.706 170.449 291.759 166.512 291.596C162.575 291.434 159.368 292.119 159.327 293.094Z" fill="#D1D4D5"/>
<path opacity="0.4" d="M159.327 293.094C159.282 294.095 162.426 295.033 166.364 295.204C170.301 295.376 173.508 294.699 173.549 293.702C173.589 292.706 170.449 291.759 166.512 291.596C162.575 291.434 159.368 292.119 159.327 293.094Z" fill="white"/>
<path d="M160.233 293.067C160.233 293.131 160.255 293.193 160.296 293.242C160.769 292.661 163.395 292.313 166.494 292.467C169.593 292.62 172.166 293.166 172.585 293.793C172.628 293.743 172.657 293.682 172.666 293.617C172.666 292.94 169.936 292.264 166.512 292.124C163.089 291.984 160.264 292.39 160.233 293.067Z" fill="#D1D4D5"/>
<path opacity="0.4" d="M160.233 293.067C160.233 293.131 160.255 293.193 160.296 293.242C160.769 292.661 163.395 292.313 166.494 292.467C169.593 292.62 172.166 293.166 172.585 293.793C172.628 293.743 172.657 293.682 172.666 293.617C172.666 292.94 169.936 292.264 166.512 292.124C163.089 291.984 160.264 292.39 160.233 293.067Z" fill="#D1D4D5"/>
<path opacity="0.4" d="M160.296 293.242C160.746 293.869 163.278 294.429 166.386 294.564C169.494 294.699 172.107 294.352 172.585 293.784C172.166 293.157 169.611 292.597 166.494 292.458C163.377 292.318 160.769 292.661 160.296 293.242Z" fill="#D1D4D5"/>
<path d="M157.755 292.174C157.755 293.166 160.854 294.113 164.791 294.275C168.729 294.438 171.936 293.77 171.972 292.778C172.008 291.786 168.873 290.839 164.945 290.667C161.016 290.496 157.8 291.177 157.755 292.174Z" fill="#D1D4D5"/>
<path d="M157.822 290.351L157.745 292.158L171.967 292.762L172.044 290.955L157.822 290.351Z" fill="#D1D4D5"/>
<path d="M157.868 290.365C157.868 291.366 160.971 292.304 164.908 292.476C168.846 292.647 172.053 291.971 172.089 290.969C172.125 289.968 168.99 289.03 165.062 288.868C161.134 288.705 157.868 289.373 157.868 290.365Z" fill="#D1D4D5"/>
<path opacity="0.4" d="M157.868 290.365C157.868 291.366 160.971 292.304 164.908 292.476C168.846 292.647 172.053 291.971 172.089 290.969C172.125 289.968 168.99 289.03 165.062 288.868C161.134 288.705 157.868 289.373 157.868 290.365Z" fill="white"/>
<path d="M158.737 290.333C158.738 290.399 158.76 290.462 158.8 290.514C159.273 289.932 161.899 289.612 164.999 289.733C168.098 289.855 170.67 290.428 171.089 291.055C171.134 291.005 171.162 290.942 171.17 290.875C171.17 290.207 168.44 289.521 165.017 289.386C161.593 289.251 158.769 289.657 158.737 290.333Z" fill="#D1D4D5"/>
<path opacity="0.4" d="M158.737 290.333C158.738 290.399 158.76 290.462 158.8 290.514C159.273 289.932 161.899 289.612 164.999 289.733C168.098 289.855 170.67 290.428 171.089 291.055C171.134 291.005 171.162 290.942 171.17 290.875C171.17 290.207 168.44 289.521 165.017 289.386C161.593 289.251 158.769 289.657 158.737 290.333Z" fill="#D1D4D5"/>
<path opacity="0.4" d="M158.8 290.514C159.251 291.141 161.782 291.7 164.89 291.831C167.999 291.962 170.611 291.623 171.089 291.055C170.67 290.428 168.116 289.869 164.999 289.734C161.881 289.598 159.273 289.932 158.8 290.514Z" fill="#D1D4D5"/>
<path d="M157.949 288.881C157.949 289.873 161.048 290.82 164.985 290.983C168.922 291.145 172.13 290.482 172.166 289.485C172.202 288.489 169.066 287.546 165.138 287.379C161.21 287.212 157.994 287.889 157.949 288.881Z" fill="#D1D4D5"/>
<path d="M158.008 287.054L157.932 288.861L172.154 289.466L172.231 287.659L158.008 287.054Z" fill="#D1D4D5"/>
<path d="M158.025 287.072C158.025 288.074 161.125 289.016 165.062 289.183C168.999 289.35 172.206 288.683 172.247 287.681C172.287 286.68 169.147 285.742 165.215 285.575C161.282 285.408 158.07 286.08 158.025 287.072Z" fill="#D1D4D5"/>
<path opacity="0.4" d="M158.025 287.072C158.025 288.074 161.125 289.016 165.062 289.183C168.999 289.35 172.206 288.683 172.247 287.681C172.287 286.68 169.147 285.742 165.215 285.575C161.282 285.408 158.07 286.08 158.025 287.072Z" fill="white"/>
<path d="M158.931 287.045C158.931 287.109 158.953 287.172 158.994 287.221C159.467 286.639 162.093 286.297 165.192 286.445C168.292 286.594 170.864 287.136 171.283 287.767C171.328 287.717 171.356 287.654 171.364 287.587C171.364 286.919 168.634 286.234 165.21 286.098C161.787 285.963 158.962 286.4 158.931 287.045Z" fill="#D1D4D5"/>
<path opacity="0.4" d="M158.931 287.045C158.931 287.109 158.953 287.172 158.994 287.221C159.467 286.639 162.093 286.297 165.192 286.445C168.292 286.594 170.864 287.136 171.283 287.767C171.328 287.717 171.356 287.654 171.364 287.587C171.364 286.919 168.634 286.234 165.21 286.098C161.787 285.963 158.962 286.4 158.931 287.045Z" fill="#D1D4D5"/>
<path opacity="0.4" d="M159.016 287.221C159.444 287.848 161.998 288.407 165.107 288.543C168.215 288.678 170.828 288.331 171.305 287.767C170.886 287.136 168.332 286.576 165.215 286.445C162.098 286.315 159.467 286.639 159.016 287.221Z" fill="#D1D4D5"/>
<path d="M156.453 286.152C156.453 287.145 159.552 288.092 163.49 288.254C167.427 288.417 170.634 287.749 170.697 286.757C170.76 285.765 167.598 284.817 163.661 284.646C159.724 284.475 156.498 285.133 156.453 286.152Z" fill="#D1D4D5"/>
<path d="M156.524 284.331L156.448 286.138L170.67 286.742L170.747 284.935L156.524 284.331Z" fill="#D1D4D5"/>
<path d="M156.53 284.357C156.489 285.359 159.629 286.297 163.566 286.468C167.503 286.64 170.729 285.949 170.751 284.966C170.774 283.983 167.652 283.031 163.719 282.86C159.787 282.689 156.575 283.352 156.53 284.357Z" fill="#D1D4D5"/>
<path opacity="0.4" d="M156.53 284.357C156.489 285.359 159.629 286.297 163.566 286.468C167.503 286.64 170.729 285.949 170.751 284.966C170.774 283.983 167.652 283.031 163.719 282.86C159.787 282.689 156.575 283.352 156.53 284.357Z" fill="white"/>
<path d="M157.435 284.312C157.436 284.378 157.458 284.441 157.498 284.493C157.98 283.911 160.598 283.591 163.697 283.717C166.796 283.843 169.377 284.407 169.787 285.047C169.833 285.001 169.862 284.941 169.868 284.876C169.868 284.199 167.138 283.523 163.715 283.379C160.291 283.234 157.467 283.645 157.435 284.312Z" fill="#D1D4D5"/>
<path opacity="0.4" d="M157.435 284.312C157.436 284.378 157.458 284.441 157.498 284.493C157.98 283.911 160.598 283.591 163.697 283.717C166.796 283.843 169.377 284.407 169.787 285.047C169.833 285.001 169.862 284.941 169.868 284.876C169.868 284.199 167.138 283.523 163.715 283.379C160.291 283.234 157.467 283.645 157.435 284.312Z" fill="#D1D4D5"/>
<path opacity="0.4" d="M157.498 284.493C157.926 285.12 160.48 285.679 163.589 285.81C166.697 285.94 169.31 285.602 169.787 285.034C169.377 284.407 166.814 283.848 163.697 283.717C160.58 283.586 157.98 283.911 157.498 284.493Z" fill="#D1D4D5"/>
<path d="M158.737 283.839C158.692 284.831 161.836 285.778 165.773 285.94C169.711 286.103 172.918 285.435 172.958 284.443C172.999 283.451 169.859 282.504 165.922 282.332C161.985 282.161 158.778 282.792 158.737 283.839Z" fill="#D1D4D5"/>
<path d="M158.799 282.011L158.722 283.818L172.944 284.422L173.021 282.615L158.799 282.011Z" fill="#D1D4D5"/>
<path d="M158.814 282.03C158.769 283.031 161.913 283.969 165.846 284.141C169.778 284.312 172.99 283.636 173.053 282.634C173.116 281.633 169.954 280.695 166.017 280.533C162.08 280.37 158.854 281.038 158.814 282.03Z" fill="#D1D4D5"/>
<path opacity="0.4" d="M158.814 282.03C158.769 283.031 161.913 283.969 165.846 284.141C169.778 284.312 172.99 283.636 173.053 282.634C173.116 281.633 169.954 280.695 166.017 280.533C162.08 280.37 158.854 281.038 158.814 282.03Z" fill="white"/>
<path d="M159.724 282.03C159.719 282.063 159.722 282.096 159.733 282.127C159.743 282.158 159.76 282.187 159.782 282.21C160.255 281.629 162.886 281.277 165.985 281.435C169.084 281.593 171.666 282.134 172.085 282.752C172.127 282.705 172.151 282.644 172.152 282.58C172.152 281.908 169.449 281.227 165.999 281.083C162.548 280.939 159.746 281.326 159.724 282.03Z" fill="#D1D4D5"/>
<path opacity="0.4" d="M159.724 282.03C159.719 282.063 159.722 282.096 159.733 282.127C159.743 282.158 159.76 282.187 159.782 282.21C160.255 281.629 162.886 281.277 165.985 281.435C169.084 281.593 171.666 282.134 172.085 282.752C172.127 282.705 172.151 282.644 172.152 282.58C172.152 281.908 169.449 281.227 165.999 281.083C162.548 280.939 159.746 281.326 159.724 282.03Z" fill="#D1D4D5"/>
<path opacity="0.4" d="M159.782 282.179C160.201 282.801 162.769 283.365 165.877 283.496C168.985 283.627 171.585 283.288 172.076 282.72C171.657 282.102 169.089 281.534 165.976 281.403C162.863 281.272 160.255 281.597 159.782 282.179Z" fill="#D1D4D5"/>
<path d="M148.71 294.74C148.948 295.71 152.246 295.719 156.057 294.74C159.868 293.761 162.76 292.228 162.521 291.258C162.282 290.288 158.994 290.279 155.183 291.258C151.372 292.237 148.471 293.779 148.71 294.74Z" fill="#D1D4D5"/>
<path d="M162.084 289.527L148.275 292.989L148.714 294.743L162.523 291.281L162.084 289.527Z" fill="#D1D4D5"/>
<path d="M148.277 292.994C148.516 293.955 151.8 293.973 155.615 292.994C159.431 292.016 162.327 290.482 162.08 289.517C161.832 288.552 158.552 288.543 154.737 289.517C150.921 290.491 148.029 292.025 148.277 292.994Z" fill="#D1D4D5"/>
<path opacity="0.4" d="M148.277 292.994C148.516 293.955 151.8 293.973 155.615 292.994C159.431 292.016 162.327 290.482 162.08 289.517C161.832 288.552 158.552 288.543 154.737 289.517C150.921 290.491 148.029 292.025 148.277 292.994Z" fill="white"/>
<path d="M149.138 292.715C149.144 292.746 149.157 292.775 149.176 292.801C149.195 292.826 149.218 292.848 149.246 292.864C149.529 292.174 151.926 291.105 154.949 290.342C157.971 289.58 160.584 289.395 161.147 289.891C161.169 289.83 161.169 289.763 161.147 289.702C160.985 289.053 158.147 289.183 154.84 290.022C151.534 290.861 148.975 292.047 149.138 292.715Z" fill="#D1D4D5"/>
<path opacity="0.4" d="M149.138 292.715C149.144 292.746 149.157 292.775 149.176 292.801C149.195 292.826 149.218 292.848 149.246 292.864C149.529 292.174 151.926 291.105 154.949 290.342C157.971 289.58 160.584 289.395 161.147 289.891C161.169 289.83 161.169 289.763 161.147 289.702C160.985 289.053 158.147 289.183 154.84 290.022C151.534 290.861 148.975 292.047 149.138 292.715Z" fill="#D1D4D5"/>
<path opacity="0.4" d="M149.246 292.895C149.827 293.373 152.444 293.188 155.444 292.444C158.444 291.7 160.85 290.64 161.147 289.923C160.566 289.445 157.953 289.639 154.949 290.374C151.944 291.109 149.529 292.165 149.246 292.895Z" fill="#D1D4D5"/>
<path d="M142.115 294.902C142.115 295.895 145.214 296.842 149.151 297.004C153.088 297.166 156.296 296.503 156.336 295.507C156.377 294.51 153.237 293.567 149.309 293.396C145.381 293.224 142.16 293.901 142.115 294.902Z" fill="#D1D4D5"/>
<path d="M142.183 293.082L142.106 294.889L156.328 295.493L156.405 293.686L142.183 293.082Z" fill="#D1D4D5"/>
<path d="M142.191 293.094C142.155 294.095 145.29 295.033 149.228 295.204C153.165 295.376 156.372 294.699 156.435 293.702C156.498 292.706 153.336 291.759 149.408 291.596C145.48 291.434 142.241 292.119 142.191 293.094Z" fill="#D1D4D5"/>
<path opacity="0.4" d="M142.191 293.094C142.155 294.095 145.29 295.033 149.228 295.204C153.165 295.376 156.372 294.699 156.435 293.702C156.498 292.706 153.336 291.759 149.408 291.596C145.48 291.434 142.241 292.119 142.191 293.094Z" fill="white"/>
<path d="M143.101 293.067C143.102 293.13 143.123 293.191 143.16 293.242C143.633 292.661 146.259 292.313 149.363 292.467C152.466 292.62 155.034 293.166 155.453 293.793C155.497 293.744 155.524 293.682 155.53 293.617C155.53 292.94 152.8 292.264 149.376 292.124C145.953 291.984 143.146 292.39 143.101 293.067Z" fill="#D1D4D5"/>
<path opacity="0.4" d="M143.101 293.067C143.102 293.13 143.123 293.191 143.16 293.242C143.633 292.661 146.259 292.313 149.363 292.467C152.466 292.62 155.034 293.166 155.453 293.793C155.497 293.744 155.524 293.682 155.53 293.617C155.53 292.94 152.8 292.264 149.376 292.124C145.953 291.984 143.146 292.39 143.101 293.067Z" fill="#D1D4D5"/>
<path opacity="0.4" d="M143.146 293.242C143.597 293.869 146.128 294.429 149.237 294.564C152.345 294.699 154.958 294.352 155.435 293.784C155.016 293.157 152.462 292.597 149.345 292.458C146.227 292.318 143.633 292.661 143.146 293.242Z" fill="#D1D4D5"/>
<path d="M224.177 294.902C224.213 295.895 221.078 296.842 217.141 297.004C213.204 297.166 209.996 296.503 209.956 295.507C209.915 294.51 213.055 293.567 216.983 293.396C220.911 293.224 224.127 293.901 224.177 294.902Z" fill="#D1D4D5"/>
<path d="M224.093 293.102L209.871 293.707L209.948 295.514L224.17 294.909L224.093 293.102Z" fill="#D1D4D5"/>
<path d="M224.1 293.094C224.145 294.095 220.997 295.033 217.064 295.204C213.131 295.376 209.915 294.699 209.879 293.702C209.843 292.706 212.978 291.759 216.915 291.596C220.853 291.434 224.06 292.119 224.1 293.094Z" fill="#D1D4D5"/>
<path opacity="0.4" d="M224.1 293.094C224.145 294.095 220.997 295.033 217.064 295.204C213.131 295.376 209.915 294.699 209.879 293.702C209.843 292.706 212.978 291.759 216.915 291.596C220.853 291.434 224.06 292.119 224.1 293.094Z" fill="white"/>
<path d="M223.19 293.067C223.19 293.13 223.169 293.191 223.132 293.242C222.659 292.661 220.028 292.313 216.929 292.467C213.83 292.62 211.271 293.166 210.821 293.793C210.776 293.744 210.749 293.682 210.744 293.617C210.744 292.94 213.469 292.264 216.897 292.124C220.325 291.984 223.159 292.39 223.19 293.067Z" fill="#D1D4D5"/>
<path opacity="0.4" d="M223.19 293.067C223.19 293.13 223.169 293.191 223.132 293.242C222.659 292.661 220.028 292.313 216.929 292.467C213.83 292.62 211.271 293.166 210.821 293.793C210.776 293.744 210.749 293.682 210.744 293.617C210.744 292.94 213.469 292.264 216.897 292.124C220.325 291.984 223.159 292.39 223.19 293.067Z" fill="#D1D4D5"/>
<path opacity="0.4" d="M223.132 293.242C222.704 293.869 220.145 294.429 217.037 294.564C213.929 294.699 211.321 294.352 210.839 293.784C211.258 293.157 213.816 292.597 216.929 292.458C220.042 292.318 222.659 292.661 223.132 293.242Z" fill="#D1D4D5"/>
<path d="M225.686 292.174C225.686 293.166 222.587 294.113 218.65 294.275C214.713 294.438 211.505 293.77 211.442 292.778C211.379 291.786 214.541 290.839 218.47 290.667C222.398 290.496 225.623 291.177 225.686 292.174Z" fill="#D1D4D5"/>
<path d="M225.606 290.348L211.384 290.952L211.461 292.759L225.683 292.155L225.606 290.348Z" fill="#D1D4D5"/>
<path d="M225.555 290.365C225.555 291.366 222.456 292.304 218.519 292.476C214.582 292.647 211.375 291.971 211.334 290.969C211.294 289.968 214.433 289.03 218.366 288.868C222.299 288.705 225.555 289.373 225.555 290.365Z" fill="#D1D4D5"/>
<path opacity="0.4" d="M225.555 290.365C225.555 291.366 222.456 292.304 218.519 292.476C214.582 292.647 211.375 291.971 211.334 290.969C211.294 289.968 214.433 289.03 218.366 288.868C222.299 288.705 225.555 289.373 225.555 290.365Z" fill="white"/>
<path d="M224.686 290.333C224.685 290.398 224.664 290.461 224.628 290.514C224.177 289.932 221.524 289.612 218.425 289.733C215.325 289.855 212.753 290.428 212.334 291.055C212.289 291.005 212.262 290.942 212.258 290.875C212.258 290.207 214.987 289.521 218.411 289.386C221.835 289.251 224.655 289.657 224.686 290.333Z" fill="#D1D4D5"/>
<path opacity="0.4" d="M224.686 290.333C224.685 290.398 224.664 290.461 224.628 290.514C224.177 289.932 221.524 289.612 218.425 289.733C215.325 289.855 212.753 290.428 212.334 291.055C212.289 291.005 212.262 290.942 212.258 290.875C212.258 290.207 214.987 289.521 218.411 289.386C221.835 289.251 224.655 289.657 224.686 290.333Z" fill="#D1D4D5"/>
<path opacity="0.4" d="M224.627 290.514C224.2 291.141 221.641 291.7 218.533 291.831C215.424 291.962 212.816 291.623 212.334 291.055C212.753 290.428 215.312 289.869 218.424 289.734C221.537 289.598 224.154 289.932 224.627 290.514Z" fill="#D1D4D5"/>
<path d="M225.479 288.881C225.479 289.873 222.38 290.82 218.443 290.983C214.505 291.145 211.298 290.482 211.258 289.485C211.217 288.489 214.357 287.546 218.285 287.379C222.213 287.212 225.429 287.889 225.479 288.881Z" fill="#D1D4D5"/>
<path d="M225.413 287.062L211.191 287.666L211.267 289.473L225.489 288.869L225.413 287.062Z" fill="#D1D4D5"/>
<path d="M225.402 287.072C225.402 288.074 222.299 289.016 218.366 289.183C214.433 289.35 211.217 288.683 211.181 287.681C211.145 286.68 214.28 285.742 218.208 285.575C222.136 285.408 225.353 286.08 225.402 287.072Z" fill="#D1D4D5"/>
<path opacity="0.4" d="M225.402 287.072C225.402 288.074 222.299 289.016 218.366 289.183C214.433 289.35 211.217 288.683 211.181 287.681C211.145 286.68 214.28 285.742 218.208 285.575C222.136 285.408 225.353 286.08 225.402 287.072Z" fill="white"/>
<path d="M224.492 287.045C224.491 287.109 224.471 287.17 224.434 287.221C223.961 286.639 221.33 286.297 218.231 286.445C215.132 286.594 212.559 287.136 212.14 287.767C212.095 287.717 212.068 287.654 212.064 287.587C212.064 286.919 214.794 286.234 218.217 286.098C221.641 285.963 224.461 286.4 224.492 287.045Z" fill="#D1D4D5"/>
<path opacity="0.4" d="M224.492 287.045C224.491 287.109 224.471 287.17 224.434 287.221C223.961 286.639 221.33 286.297 218.231 286.445C215.132 286.594 212.559 287.136 212.14 287.767C212.095 287.717 212.068 287.654 212.064 287.587C212.064 286.919 214.794 286.234 218.217 286.098C221.641 285.963 224.461 286.4 224.492 287.045Z" fill="#D1D4D5"/>
<path opacity="0.4" d="M224.434 287.221C223.983 287.848 221.447 288.407 218.339 288.543C215.231 288.678 212.622 288.331 212.14 287.753C212.559 287.122 215.118 286.563 218.231 286.432C221.344 286.301 223.961 286.639 224.434 287.221Z" fill="#D1D4D5"/>
<path d="M226.974 286.152C226.974 287.145 223.875 288.092 219.938 288.254C216.001 288.417 212.794 287.749 212.731 286.757C212.667 285.765 215.83 284.817 219.767 284.646C223.704 284.475 226.929 285.133 226.974 286.152Z" fill="#D1D4D5"/>
<path d="M226.9 284.336L212.678 284.94L212.754 286.747L226.976 286.143L226.9 284.336Z" fill="#D1D4D5"/>
<path d="M226.898 284.357C226.934 285.359 223.794 286.297 219.862 286.468C215.929 286.64 212.713 285.963 212.676 284.966C212.64 283.969 215.776 283.031 219.704 282.86C223.632 282.689 226.848 283.352 226.898 284.357Z" fill="#D1D4D5"/>
<path opacity="0.4" d="M226.898 284.357C226.934 285.359 223.794 286.297 219.862 286.468C215.929 286.64 212.713 285.963 212.676 284.966C212.64 283.969 215.776 283.031 219.704 282.86C223.632 282.689 226.848 283.352 226.898 284.357Z" fill="white"/>
<path d="M225.988 284.312C225.986 284.377 225.966 284.44 225.929 284.493C225.447 283.911 222.826 283.591 219.726 283.717C216.627 283.843 214.046 284.407 213.636 285.034C213.591 284.988 213.564 284.927 213.559 284.862C213.559 284.186 216.289 283.509 219.713 283.365C223.136 283.221 225.956 283.645 225.988 284.312Z" fill="#D1D4D5"/>
<path opacity="0.4" d="M225.988 284.312C225.986 284.377 225.966 284.44 225.929 284.493C225.447 283.911 222.826 283.591 219.726 283.717C216.627 283.843 214.046 284.407 213.636 285.034C213.591 284.988 213.564 284.927 213.559 284.862C213.559 284.186 216.289 283.509 219.713 283.365C223.136 283.221 225.956 283.645 225.988 284.312Z" fill="#D1D4D5"/>
<path opacity="0.4" d="M225.929 284.493C225.479 285.12 222.943 285.679 219.834 285.81C216.726 285.94 214.118 285.602 213.636 285.034C214.046 284.407 216.614 283.848 219.726 283.717C222.839 283.586 225.447 283.911 225.929 284.493Z" fill="#D1D4D5"/>
<path d="M224.686 283.839C224.736 284.831 221.587 285.778 217.65 285.94C213.713 286.103 210.505 285.435 210.469 284.443C210.433 283.451 213.568 282.504 217.506 282.332C221.443 282.161 224.65 282.792 224.686 283.839Z" fill="#D1D4D5"/>
<path d="M224.623 282.013L210.401 282.617L210.478 284.424L224.7 283.819L224.623 282.013Z" fill="#D1D4D5"/>
<path d="M224.609 282.03C224.655 283.031 221.51 283.969 217.582 284.141C213.654 284.312 210.438 283.636 210.375 282.634C210.312 281.633 213.474 280.695 217.411 280.533C221.348 280.37 224.573 281.038 224.609 282.03Z" fill="#D1D4D5"/>
<path opacity="0.4" d="M224.609 282.03C224.655 283.031 221.51 283.969 217.582 284.141C213.654 284.312 210.438 283.636 210.375 282.634C210.312 281.633 213.474 280.695 217.411 280.533C221.348 280.37 224.573 281.038 224.609 282.03Z" fill="white"/>
<path d="M223.704 282.03C223.706 282.063 223.702 282.096 223.691 282.127C223.68 282.158 223.663 282.186 223.641 282.21C223.19 281.629 220.542 281.277 217.442 281.435C214.343 281.593 211.762 282.134 211.343 282.752C211.299 282.705 211.274 282.644 211.271 282.58C211.271 281.908 213.974 281.227 217.424 281.083C220.875 280.939 223.682 281.326 223.704 282.03Z" fill="#D1D4D5"/>
<path opacity="0.4" d="M223.704 282.03C223.706 282.063 223.702 282.096 223.691 282.127C223.68 282.158 223.663 282.186 223.641 282.21C223.19 281.629 220.542 281.277 217.442 281.435C214.343 281.593 211.762 282.134 211.343 282.752C211.299 282.705 211.274 282.644 211.271 282.58C211.271 281.908 213.974 281.227 217.424 281.083C220.875 280.939 223.682 281.326 223.704 282.03Z" fill="#D1D4D5"/>
<path opacity="0.4" d="M223.641 282.179C223.222 282.801 220.659 283.365 217.551 283.496C214.442 283.627 211.839 283.288 211.352 282.72C211.771 282.102 214.334 281.534 217.451 281.403C220.569 281.272 223.168 281.597 223.641 282.179Z" fill="#D1D4D5"/>
<path d="M234.696 294.74C234.457 295.71 231.164 295.719 227.353 294.74C223.542 293.761 220.645 292.228 220.889 291.258C221.132 290.288 224.416 290.279 228.227 291.258C232.038 292.237 234.957 293.779 234.696 294.74Z" fill="#D1D4D5"/>
<path d="M221.344 289.526L220.905 291.28L234.713 294.743L235.152 292.988L221.344 289.526Z" fill="#D1D4D5"/>
<path d="M235.146 292.994C234.903 293.955 231.619 293.973 227.808 292.994C223.997 292.016 221.096 290.482 221.344 289.517C221.591 288.552 224.871 288.543 228.682 289.517C232.493 290.491 235.398 292.025 235.146 292.994Z" fill="#D1D4D5"/>
<path opacity="0.4" d="M235.146 292.994C234.903 293.955 231.619 293.973 227.808 292.994C223.997 292.016 221.096 290.482 221.344 289.517C221.591 288.552 224.871 288.543 228.682 289.517C232.493 290.491 235.398 292.025 235.146 292.994Z" fill="white"/>
<path d="M234.29 292.715C234.273 292.776 234.235 292.829 234.182 292.864C233.894 292.174 231.479 291.105 228.479 290.342C225.479 289.58 222.844 289.395 222.276 289.891C222.254 289.83 222.254 289.763 222.276 289.702C222.438 289.053 225.276 289.183 228.583 290.022C231.889 290.861 234.452 292.047 234.29 292.715Z" fill="#D1D4D5"/>
<path opacity="0.4" d="M234.29 292.715C234.273 292.776 234.235 292.829 234.182 292.864C233.894 292.174 231.479 291.105 228.479 290.342C225.479 289.58 222.844 289.395 222.276 289.891C222.254 289.83 222.254 289.763 222.276 289.702C222.438 289.053 225.276 289.183 228.583 290.022C231.889 290.861 234.452 292.047 234.29 292.715Z" fill="#D1D4D5"/>
<path opacity="0.4" d="M234.182 292.895C233.601 293.373 230.979 293.188 227.979 292.444C224.979 291.7 222.573 290.64 222.276 289.923C222.857 289.445 225.47 289.639 228.479 290.374C231.488 291.109 233.894 292.165 234.182 292.895Z" fill="#D1D4D5"/>
<path d="M241.408 294.902C241.408 295.895 238.308 296.842 234.371 297.004C230.434 297.166 227.227 296.503 227.186 295.507C227.146 294.51 230.285 293.567 234.214 293.396C238.142 293.224 241.358 293.901 241.408 294.902Z" fill="#D1D4D5"/>
<path d="M241.24 293.082L227.018 293.687L227.094 295.494L241.317 294.889L241.24 293.082Z" fill="#D1D4D5"/>
<path d="M241.232 293.094C241.272 294.095 238.133 295.033 234.195 295.204C230.258 295.376 227.051 294.699 227.01 293.702C226.97 292.706 230.114 291.759 234.042 291.596C237.97 291.434 241.187 292.119 241.232 293.094Z" fill="#D1D4D5"/>
<path opacity="0.4" d="M241.232 293.094C241.272 294.095 238.133 295.033 234.195 295.204C230.258 295.376 227.051 294.699 227.01 293.702C226.97 292.706 230.114 291.759 234.042 291.596C237.97 291.434 241.187 292.119 241.232 293.094Z" fill="white"/>
<path d="M240.326 293.067C240.326 293.131 240.304 293.193 240.263 293.242C239.79 292.661 237.164 292.313 234.065 292.467C230.966 292.62 228.389 293.166 227.975 293.793C227.93 293.744 227.903 293.682 227.898 293.617C227.898 292.94 230.601 292.264 234.047 292.124C237.493 291.984 240.281 292.39 240.326 293.067Z" fill="#D1D4D5"/>
<path opacity="0.4" d="M240.326 293.067C240.326 293.131 240.304 293.193 240.263 293.242C239.79 292.661 237.164 292.313 234.065 292.467C230.966 292.62 228.389 293.166 227.975 293.793C227.93 293.744 227.903 293.682 227.898 293.617C227.898 292.94 230.601 292.264 234.047 292.124C237.493 291.984 240.281 292.39 240.326 293.067Z" fill="#D1D4D5"/>
<path opacity="0.4" d="M240.281 293.242C239.853 293.869 237.295 294.429 234.186 294.564C231.078 294.699 228.47 294.352 227.988 293.784C228.407 293.157 230.966 292.597 234.078 292.458C237.191 292.318 239.79 292.661 240.281 293.242Z" fill="#D1D4D5"/>
<path d="M233.241 290.419C232.817 291.321 235.358 293.414 238.912 295.074C242.466 296.733 245.701 297.401 246.119 296.472C246.538 295.543 244.007 293.481 240.448 291.817C236.889 290.153 233.659 289.517 233.241 290.419Z" fill="#D1D4D5"/>
<path d="M234.01 288.815L233.241 290.452L246.125 296.514L246.893 294.877L234.01 288.815Z" fill="#D1D4D5"/>
<path d="M234.006 288.791C233.583 289.693 236.124 291.777 239.682 293.445C243.241 295.114 246.471 295.773 246.89 294.839C247.309 293.906 244.773 291.844 241.214 290.185C237.655 288.525 234.425 287.88 234.006 288.791Z" fill="#D1D4D5"/>
<path opacity="0.4" d="M234.006 288.791C233.583 289.693 236.124 291.777 239.682 293.445C243.241 295.114 246.471 295.773 246.89 294.839C247.309 293.906 244.773 291.844 241.214 290.185C237.655 288.525 234.425 287.88 234.006 288.791Z" fill="white"/>
<path d="M234.853 289.107C234.831 289.166 234.831 289.232 234.853 289.291C235.511 288.944 238.047 289.625 240.858 290.956C243.669 292.286 245.813 293.793 245.975 294.532C246.034 294.504 246.08 294.456 246.106 294.397C246.394 293.784 244.115 292.07 241.007 290.636C237.898 289.201 235.146 288.502 234.853 289.107Z" fill="#D1D4D5"/>
<path opacity="0.4" d="M234.853 289.107C234.831 289.166 234.831 289.232 234.853 289.291C235.511 288.944 238.047 289.625 240.858 290.956C243.669 292.286 245.813 293.793 245.975 294.532C246.034 294.504 246.08 294.456 246.106 294.397C246.394 293.784 244.115 292.07 241.007 290.636C237.898 289.201 235.146 288.502 234.853 289.107Z" fill="#D1D4D5"/>
<path opacity="0.4" d="M234.844 289.291C234.993 290.067 237.169 291.547 239.953 292.868C242.736 294.19 245.309 294.889 245.957 294.519C245.809 293.779 243.633 292.264 240.84 290.942C238.047 289.621 235.502 288.944 234.844 289.291Z" fill="#D1D4D5"/>
<path d="M218.997 45.8105C218.997 45.8105 222.213 44.6198 223.249 36.2398C223.5 34.4554 223.39 32.6387 222.926 30.8977C222.461 29.1568 221.652 27.527 220.546 26.1053C218.028 23.0022 213.487 20.1833 205.388 21.374C205.388 21.374 183.792 22.885 185.301 40.4028C185.301 40.4028 185.518 65.2722 166.21 70.6214C166.21 70.6214 165.94 70.6484 165.476 70.7341C153.471 72.8855 150.196 88.6308 160.251 95.5405L162.462 97.0649C166.485 99.8342 171.148 104.087 170.305 108.9C170.26 109.152 170.211 109.405 170.148 109.658C169.821 111.082 169.839 112.565 170.201 113.981C170.563 115.397 171.258 116.706 172.229 117.799C174.585 120.473 178.819 123.125 186.382 123.436L200.852 58.994L218.997 45.8105Z" fill="#3F4652"/>
<path d="M193.293 69.1646C169.967 70.008 145.754 94.9406 137.506 104.674C136.125 106.264 135.211 108.206 134.864 110.284C134.517 112.363 134.752 114.497 135.542 116.45C142.227 132.313 174.283 143.336 174.283 143.336L179.9 133.819L150.741 113.275L173.206 101.814L183.792 134.035L217.915 131.442L218.78 110.05L236.831 134.09C237.205 134.582 237.686 134.983 238.238 135.261C238.79 135.54 239.399 135.687 240.017 135.694C240.635 135.701 241.247 135.565 241.805 135.299C242.363 135.033 242.852 134.642 243.236 134.157C246.115 130.549 250.268 124.086 253.768 113.942L246.21 108.323L240.804 117.402L225.758 83.4395C225.231 82.2533 224.776 81.0401 224.33 79.8313C223.218 76.8004 217.884 68.2716 193.293 69.1646Z" fill="#145DA0"/>
<path d="M180.553 216.424L213.595 183.116L225.686 194.797C225.686 194.797 218.343 206.691 218.127 207.34C217.911 207.99 195.883 223.343 187.892 226.153L180.553 216.424Z" fill="#3F4652"/>
<path opacity="0.2" d="M180.553 216.424L213.595 183.116L225.686 194.797C225.686 194.797 218.343 206.691 218.127 207.34C217.911 207.99 195.883 223.343 187.892 226.153L180.553 216.424Z" fill="black"/>
<path d="M185.734 265.292C185.734 265.292 186.184 258.157 189.189 255.131L195 246.598L202.915 252.804L193.077 268.323C193.077 268.323 190.703 265.081 185.734 265.292Z" fill="#F9B499"/>
<path d="M165.864 228.318L181.783 218.057L187.896 226.153L175.801 235.435C175.801 235.435 173.931 233.865 169.467 235.886C169.467 235.886 166.873 237.022 165.864 228.318Z" fill="#F9B499"/>
<path d="M272.26 62.6247H243.475C242.995 62.6247 242.606 63.0144 242.606 63.4952V100.966C242.606 101.447 242.995 101.837 243.475 101.837H272.26C272.74 101.837 273.13 101.447 273.13 100.966V63.4952C273.13 63.0144 272.74 62.6247 272.26 62.6247Z" fill="#3F4652"/>
<path opacity="0.2" d="M270.54 168.724H263.053V199.862H270.54V168.724Z" fill="#09338B"/>
<path opacity="0.2" d="M282.346 132.11H274.86V199.862H282.346V132.11Z" fill="#09338B"/>
<path opacity="0.2" d="M294.437 92.3202H286.95V199.858H294.437V92.3202Z" fill="#09338B"/>
<path opacity="0.2" d="M306.244 158.634H298.757V199.862H306.244V158.634Z" fill="#09338B"/>
<path d="M335.858 214.688C335.957 213.849 336.007 213.006 336.007 212.162C336.007 207.997 334.775 203.925 332.464 200.461C330.154 196.998 326.869 194.298 323.026 192.703C319.183 191.109 314.954 190.691 310.874 191.503C306.793 192.315 303.045 194.32 300.103 197.265C297.161 200.21 295.158 203.962 294.346 208.047C293.534 212.132 293.95 216.367 295.542 220.215C297.134 224.063 299.83 227.352 303.289 229.666C306.747 231.981 310.814 233.216 314.974 233.216C315.74 233.216 316.505 233.176 317.267 233.094L314.974 212.162L335.858 214.688Z" fill="#BCBEC0"/>
<path d="M317.073 214.277L320.064 235.227C320.064 235.227 336.732 233.089 337.358 217.267L317.073 214.277Z" fill="#A7A9AC"/>
<g opacity="0.2">
<path d="M225.943 72.3353L212.726 60.5726L213.172 60.0674L225.866 71.3656L248.849 43.1811L279.382 57.6003L299.658 34.7244L300.163 35.1709L279.549 58.4257L249.039 44.0155L225.943 72.3353Z" fill="black"/>
</g>
<path d="M226.096 73.8687C227.367 73.8687 228.398 72.8369 228.398 71.564C228.398 70.2911 227.367 69.2593 226.096 69.2593C224.825 69.2593 223.794 70.2911 223.794 71.564C223.794 72.8369 224.825 73.8687 226.096 73.8687Z" fill="#BCBEC0"/>
<path d="M248.944 46.4781C250.215 46.4781 251.246 45.4462 251.246 44.1733C251.246 42.9005 250.215 41.8686 248.944 41.8686C247.673 41.8686 246.642 42.9005 246.642 44.1733C246.642 45.4462 247.673 46.4781 248.944 46.4781Z" fill="#BCBEC0"/>
<path d="M279.463 60.0313C280.735 60.0313 281.765 58.9995 281.765 57.7266C281.765 56.4537 280.735 55.4219 279.463 55.4219C278.192 55.4219 277.161 56.4537 277.161 57.7266C277.161 58.9995 278.192 60.0313 279.463 60.0313Z" fill="#BCBEC0"/>
<path d="M300.775 36.3886C302.046 36.3886 303.077 35.3568 303.077 34.0839C303.077 32.811 302.046 31.7792 300.775 31.7792C299.504 31.7792 298.473 32.811 298.473 34.0839C298.473 35.3568 299.504 36.3886 300.775 36.3886Z" fill="#BCBEC0"/>
<path d="M130.263 180.55H52.6421V112.287H53.3133V179.878H130.263V180.55Z" fill="#F0F5F8"/>
<path d="M65.5661 105.237L64.994 104.881L97.2883 52.621H140.254V53.293H97.6622L65.5661 105.237Z" fill="#F0F5F8"/>
<path d="M140.862 57.9205H98.8199V58.5926H140.862V57.9205Z" fill="#F0F5F8"/>
<path d="M140.862 62.7736H98.8199V63.4456H140.862V62.7736Z" fill="#F0F5F8"/>
<path d="M140.862 67.6762H98.8199V68.3482H140.862V67.6762Z" fill="#F0F5F8"/>
<path d="M127.276 72.5788H98.8199V73.2509H127.276V72.5788Z" fill="#F0F5F8"/>
<path d="M183.792 134.035C183.792 134.035 169.751 148.955 198.261 171.876L218.587 189.516C219.255 190.095 219.706 190.884 219.866 191.754C220.026 192.624 219.884 193.523 219.465 194.301L192.437 244.753L205.392 254.048C205.392 254.048 249.885 202.587 246.214 189.611C246.214 189.611 261.764 173.374 256.147 161.065C256.147 161.065 246.646 146.578 217.92 131.442L183.792 134.035Z" fill="#3F4652"/>
<path d="M182.927 284.326C182.927 284.326 176.45 283.676 179.688 269.618C179.688 269.618 180.553 254.481 189.189 255.131C189.189 255.131 186.599 255.997 185.734 265.293C187.111 265.171 188.497 265.384 189.774 265.911C191.052 266.439 192.185 267.266 193.076 268.323C193.076 268.323 187.031 284.542 182.927 284.326Z" fill="#145DA0"/>
<path d="M165.864 228.318C165.864 228.318 161.116 231.43 161.692 233.883C161.692 233.883 165.882 250.436 173.197 253.029C173.551 253.143 173.928 253.161 174.292 253.082C174.655 253.003 174.99 252.829 175.265 252.578C175.539 252.328 175.742 252.008 175.854 251.654C175.966 251.299 175.981 250.921 175.9 250.558C174.999 246.417 173.724 238.56 175.801 235.453" fill="#145DA0"/>
<path d="M198.478 53.8117L196.752 68.9481L193.293 69.1646C193.293 69.1646 198.248 79.5381 206.901 78.2437C206.901 78.2437 212.595 79.5291 212.379 70.8785L209.825 70.3057L209.275 58.579L198.478 53.8117Z" fill="#F9B499"/>
<path d="M175.094 141.901C175.094 141.901 188.509 151.887 204.163 148.784C204.891 148.637 205.549 148.248 206.028 147.68C206.507 147.112 206.78 146.397 206.802 145.654L206.829 144.648C206.839 144.186 206.752 143.726 206.573 143.3C206.393 142.873 206.126 142.49 205.788 142.174C205.451 141.858 205.051 141.617 204.614 141.467C204.177 141.316 203.713 141.26 203.253 141.301C200.979 141.496 198.689 141.359 196.455 140.895C196.455 140.895 202.099 140.49 201.09 137.666C201.09 137.666 198.275 134.847 189.184 137.441C188.531 137.627 187.847 137.68 187.173 137.596C186.498 137.511 185.848 137.291 185.261 136.949L179.905 133.819L175.094 141.901Z" fill="#F9B499"/>
<path d="M247.642 109.216C247.642 109.216 254.196 101.738 255.751 95.9419C255.945 95.2159 256.357 94.5671 256.931 94.0831C257.506 93.5992 258.215 93.3034 258.962 93.2358C259.506 93.1883 260.054 93.2634 260.565 93.4555C261.076 93.6476 261.538 93.9518 261.916 94.3458C262.295 94.7399 262.58 95.2137 262.752 95.7326C262.924 96.2515 262.977 96.8023 262.909 97.3446C262.526 100.556 261.224 104.805 257.296 107.614C257.296 107.614 253.431 110.569 253.75 113.929L247.642 109.216Z" fill="#F9B499"/>
<path d="M209.469 62.6247L209.28 58.5655C209.28 58.5655 204.586 57.6184 198.469 53.8117C198.478 53.8117 204.478 61.5287 209.469 62.6247Z" fill="#F4A48E"/>
<path d="M202.365 57.0546C203.547 57.8419 204.858 58.413 206.239 58.7414C211.618 60.0584 217.024 56.5584 218.271 51.1597C218.62 49.61 218.862 48.0383 218.997 46.4555V38.6708C218.997 38.6708 216.402 31.1207 207.983 31.3191C207.983 31.3191 205.388 37.5929 198.045 35.6445C198.045 35.6445 198.261 43.4291 196.104 45.594C196.104 45.594 194.374 39.5368 190.919 42.9961C190.919 42.9961 189.189 51.6468 195.874 50.7808C195.887 50.7808 198.694 55.5391 202.365 57.0546Z" fill="#F9B499"/>
</g>
<defs>
<filter id="filter0_d_3_176" x="-4" y="0" width="398" height="316" filterUnits="userSpaceOnUse" color-interpolation-filters="sRGB">
<feFlood flood-opacity="0" result="BackgroundImageFix"/>
<feColorMatrix in="SourceAlpha" type="matrix" values="0 0 0 0 0 0 0 0 0 0 0 0 0 0 0 0 0 0 127 0" result="hardAlpha"/>
<feOffset dy="4"/>
<feGaussianBlur stdDeviation="2"/>
<feComposite in2="hardAlpha" operator="out"/>
<feColorMatrix type="matrix" values="0 0 0 0 0 0 0 0 0 0 0 0 0 0 0 0 0 0 0.25 0"/>
<feBlend mode="normal" in2="BackgroundImageFix" result="effect1_dropShadow_3_176"/>
<feBlend mode="normal" in="SourceGraphic" in2="effect1_dropShadow_3_176" result="shape"/>
</filter>
</defs>
</svg>
