<svg width="356" height="282" viewBox="0 0 356 282" fill="none" xmlns="http://www.w3.org/2000/svg">
<g clip-path="url(#clip0_345_2)">
<path d="M293.33 137.741L308.358 121.385L296.059 111.675L289.983 125.115L262.417 134.226C261.488 133.692 260.423 133.439 259.353 133.5C258.283 133.56 257.254 133.93 256.391 134.566C255.528 135.202 254.868 136.075 254.492 137.079C254.117 138.083 254.041 139.175 254.275 140.221C254.508 141.268 255.041 142.223 255.809 142.972C256.576 143.721 257.544 144.23 258.596 144.437C259.647 144.645 260.736 144.541 261.73 144.14C262.724 143.739 263.579 143.058 264.193 142.178L293.33 137.741Z" fill="#F9B499"/>
<path d="M320.878 100.786C323.602 106.863 306.982 124.226 306.982 124.226C302.437 127.903 301.716 137.109 296.082 138.134C280.884 140.898 290.337 138.005 286.411 139.516C282.716 140.938 286.119 128.77 283.648 127.996C282.234 127.554 290.095 122.467 290.095 122.467C290.095 122.467 297.18 108.566 301.536 101.356C302.729 99.2947 304.425 97.569 306.464 96.3397C308.504 95.1104 310.821 94.4174 313.201 94.3251C313.201 94.3251 318.154 94.7081 320.878 100.786Z" fill="#0064C0"/>
<path d="M250.516 281.454H77.8314C73.7384 281.449 69.8144 279.82 66.9203 276.925C64.0261 274.029 62.3982 270.103 62.3936 266.008V15.4459C62.3982 11.3508 64.0261 7.42478 66.9203 4.52911C69.8144 1.63344 73.7384 0.00462466 77.8314 0H250.516C254.609 0.00462589 258.533 1.63344 261.427 4.52911C264.321 7.42478 265.949 11.3508 265.953 15.4459V266.008C265.949 270.103 264.321 274.029 261.427 276.925C258.533 279.82 254.609 281.449 250.516 281.454Z" fill="#3F3D56"/>
<path d="M250.82 271.599H77.5274C76.2657 271.598 75.0561 271.096 74.1639 270.203C73.2718 269.31 72.7699 268.1 72.7685 266.838V14.6162C72.7699 13.3538 73.2718 12.1436 74.1639 11.251C75.0561 10.3584 76.2657 9.85627 77.5274 9.85483H250.82C252.081 9.85627 253.291 10.3584 254.183 11.251C255.075 12.1436 255.577 13.3538 255.578 14.6162V266.838C255.577 268.1 255.075 269.31 254.183 270.203C253.291 271.096 252.081 271.598 250.82 271.599Z" fill="white"/>
<path d="M85.9816 125.914C86.4653 119.342 87.264 111.263 93.7628 107.752C96.8293 106.095 100.076 106.681 103.159 107.972C106.138 109.22 108.945 110.708 112.154 111.294C117.685 112.249 123.376 111.395 128.384 108.859C133.428 106.35 137.474 102.206 139.865 97.1025C141.095 94.5069 142.112 91.6941 143.925 89.4287C144.837 88.2394 146.046 87.3115 147.431 86.7382C148.815 86.165 150.326 85.9667 151.812 86.1632C158.626 87.0049 163.148 92.9788 168.581 96.4956C171.193 98.1868 174.193 99.4218 177.357 99.2703C180.602 99.115 183.543 97.5782 186.03 95.5718C191.306 91.3146 194.191 84.7309 199.728 80.7639C202.354 78.93 205.4 77.7907 208.584 77.4522C211.768 77.1136 214.986 77.5868 217.938 78.8277C223.613 81.2771 227.631 86.7654 228.693 92.8051C228.947 94.2932 229.013 95.8075 228.888 97.312C228.819 98.1991 230.201 98.1946 230.27 97.312C230.477 94.1817 229.958 91.0459 228.754 88.1494C227.55 85.2529 225.693 82.6741 223.328 80.6145C218.429 76.3859 211.584 75.0116 205.359 76.6388C202.189 77.4796 199.275 79.0908 196.877 81.3292C194.316 83.6925 192.296 86.556 190.134 89.2702C188.025 91.9181 185.698 94.4751 182.738 96.1853C181.321 97.0496 179.732 97.5946 178.083 97.7822C176.434 97.9699 174.763 97.7957 173.188 97.2719C169.993 96.1934 167.285 93.9714 164.729 91.844C162.093 89.651 159.47 87.4568 156.303 86.0634C153.357 84.7678 149.98 84.1394 146.914 85.4153C144.149 86.5657 142.32 88.9535 140.964 91.5361C139.587 94.1576 138.607 96.9844 137.001 99.4842C135.448 101.877 133.454 103.953 131.127 105.601C126.399 108.981 120.65 110.624 114.851 110.254C111.701 110.03 108.836 109.034 105.983 107.729C102.834 106.289 99.5176 104.791 95.9745 105.488C92.9183 106.09 90.347 108.168 88.5618 110.65C86.5006 113.515 85.595 117.028 85.1223 120.477C84.875 122.282 84.7336 124.098 84.6 125.914C84.5346 126.801 85.9166 126.797 85.9816 125.914Z" fill="#37AAEB"/>
<path d="M330.204 274.795L323.643 274.795L320.522 249.477L330.205 249.477L330.204 274.795Z" fill="#F9B499"/>
<path d="M330.029 272.65L323.029 269.805L322.822 269.72L318.957 272.65C316.836 272.65 314.796 273.469 313.264 274.937C311.732 276.404 310.826 278.407 310.734 280.528C310.723 280.644 310.723 280.766 310.723 280.888V281.158H331.877V272.65H330.029Z" fill="#2F2E41"/>
<path d="M314.84 268.687L308.651 270.865L297.308 248.019L306.442 244.804L314.84 268.687Z" fill="#F9B499"/>
<path d="M313.963 266.721L306.416 266.362L306.194 266.351L303.519 270.398C301.518 271.102 299.866 272.552 298.908 274.445C297.949 276.339 297.759 278.529 298.376 280.56C298.404 280.673 298.445 280.788 298.485 280.903L298.575 281.158L318.529 274.133L315.707 266.108L313.963 266.721Z" fill="#2F2E41"/>
<path d="M332.522 165.631C338.524 165.398 331.089 213.252 331.089 213.252C331.089 213.252 333.264 255.266 332.803 257.471C332.342 259.676 332.745 265.622 332.745 265.622C331.569 263.481 319.437 265.097 319.437 265.097L317.787 222.516L309.361 188.398L297.679 211.268L308.875 246.371C308.875 246.371 313.41 250.569 312.927 252.228C312.445 253.887 300.568 257.628 298.386 257.713C296.203 257.797 297.189 255.025 297.083 252.296C296.977 249.566 286.707 224.268 283.095 215.661C279.483 207.053 282.291 194.916 284.135 186.097C285.979 177.277 295.68 160.727 295.68 160.727C307.721 147.138 326.52 165.863 332.522 165.631Z" fill="#2F2E41"/>
<path d="M315.726 86.1237C322.048 86.1237 327.174 80.9958 327.174 74.6702C327.174 68.3446 322.048 63.2167 315.726 63.2167C309.404 63.2167 304.279 68.3446 304.279 74.6702C304.279 80.9958 309.404 86.1237 315.726 86.1237Z" fill="#F9B499"/>
<path d="M310.002 93.6936C307.536 95.1605 306.061 97.8558 305.214 100.599C303.646 105.676 302.702 110.926 302.404 116.232L299.146 147.89L292.858 163.477C306.304 162.309 336.121 167.791 336.121 167.791C336.121 167.791 337.229 167.421 336.121 166.313C335.013 165.204 333.935 166.186 335.043 165.078C336.15 163.969 335.387 165.204 335.017 164.096C334.648 162.987 335.017 163.726 335.387 163.357C335.756 162.987 332.528 159.662 332.528 159.662L335.482 140.246L339.175 101.083C334.744 95.5409 325.832 92.2739 325.832 92.2739L323.529 88.1269L312.015 89.0484L310.002 93.6936Z" fill="#0064C0"/>
<path d="M343.512 137.479L340.671 120.724L330.785 122.517L331.654 137.172L327.327 167.676C326.319 168.041 325.439 168.691 324.794 169.547C324.149 170.404 323.768 171.429 323.695 172.499C323.623 173.569 323.863 174.637 324.387 175.572C324.911 176.508 325.695 177.27 326.645 177.767C327.594 178.265 328.668 178.475 329.735 178.372C330.801 178.269 331.815 177.858 332.652 177.188C333.49 176.519 334.114 175.62 334.45 174.602C334.785 173.584 334.818 172.49 334.543 171.454L343.512 137.479Z" fill="#F9B499"/>
<path d="M335.345 98.2746C341.742 100.118 344.262 124.026 344.262 124.026C347.16 135.564 341.676 140.424 340.284 140.373C336.329 140.229 334.137 136.841 331.951 138.23C330.701 139.024 330.468 129.897 330.468 129.897C330.468 129.897 325.982 121.404 323.291 113.421C322.489 111.178 322.267 108.768 322.645 106.416C323.024 104.064 323.991 101.846 325.457 99.9689C325.457 99.9689 328.948 96.4318 335.345 98.2746Z" fill="#0064C0"/>
<path d="M328.825 71.17C328.788 69.3095 328.577 66.9292 327.274 65.031C326.175 63.4342 323.958 62.1687 321.891 62.8014C321.915 62.388 321.823 61.9762 321.626 61.6118C321.429 61.2475 321.135 60.9448 320.777 60.7375C319.985 60.3321 319.111 60.1118 318.221 60.0935C316.125 59.8976 313.953 59.6943 311.83 60.0972C309.447 60.5492 307.497 61.777 306.484 63.4681L306.462 63.5208L306.255 64.5226C306.227 64.657 306.171 64.7838 306.089 64.8943C306.008 65.0048 305.904 65.0964 305.784 65.1629C305.664 65.2303 305.531 65.2703 305.393 65.28C305.256 65.2898 305.118 65.2691 304.99 65.2193C304.849 65.1666 304.698 65.1515 304.549 65.1755C304.401 65.1995 304.262 65.2617 304.145 65.356C304.029 65.4504 303.938 65.5735 303.884 65.7134C303.829 65.8532 303.812 66.0049 303.834 66.1534L303.891 66.5526L303.292 66.4396C303.142 66.4105 302.987 66.4221 302.842 66.4731C302.698 66.5241 302.57 66.6127 302.471 66.7298C302.373 66.8469 302.307 66.9882 302.281 67.1391C302.256 67.2901 302.271 67.4451 302.325 67.5883L302.49 68.0441C302.367 68.0457 302.245 68.0722 302.131 68.1221C302.018 68.1719 301.916 68.244 301.832 68.3341C301.711 68.4654 301.635 68.6317 301.614 68.809C301.594 68.9864 301.631 69.1656 301.719 69.3208C302.389 70.4665 303.34 71.4229 304.482 72.1003C304.995 72.4097 305.549 72.6467 306.127 72.8046C306.247 72.8385 306.371 72.8686 306.499 72.895C311.121 73.8916 315.886 74.0345 320.559 73.3168C320.284 74.2392 320.178 75.2039 320.246 76.1641C320.287 76.7086 320.476 77.2317 320.792 77.6765C321.109 78.1213 321.541 78.471 322.042 78.6875C322.255 78.7597 322.474 78.8126 322.697 78.8457C322.91 78.8802 323.121 78.9319 323.326 79.0001C323.628 79.1111 323.896 79.3 324.103 79.5479C324.309 79.7959 324.446 80.0939 324.501 80.4119C324.555 80.7299 324.524 81.0565 324.412 81.3589C324.299 81.6612 324.109 81.9285 323.86 82.1336C323.86 82.1336 324.846 82.9509 324.971 82.9095C325.455 82.6952 325.861 82.3343 326.13 81.8775C328.008 79.1733 328.916 75.5728 328.825 71.17Z" fill="#2F2E41"/>
<path d="M28.9211 243.921L27.5763 250.671C27.4749 251.187 27.369 251.712 27.2539 252.233C26.1299 252 24.9645 252.065 23.8735 252.422C24.7391 253.66 25.5148 254.958 26.1946 256.306C25.3472 258.919 24.1038 261.334 22.0221 263.08C20.6318 264.22 18.9713 264.983 17.2006 265.295C15.43 265.606 13.609 265.456 11.9132 264.859L11.9731 264.591C9.73483 260.246 10.9507 254.767 13.7323 250.754C15.1511 248.774 16.8321 246.996 18.7292 245.469C20.6082 243.902 22.6392 242.497 24.6518 241.11C25.1038 240.799 25.6383 240.63 26.1868 240.624C26.7354 240.618 27.2732 240.777 27.7314 241.078C28.1897 241.38 28.5477 241.812 28.7596 242.318C28.9715 242.824 29.0277 243.382 28.9211 243.921Z" fill="#E4E4E4"/>
<path d="M12.3921 281.101C11.8261 276.976 11.244 272.798 11.641 268.628C11.9937 264.925 13.1225 261.309 15.4216 258.343C16.6418 256.772 18.1266 255.426 19.8092 254.365C20.2481 254.089 20.6515 254.784 20.2149 255.059C17.3037 256.9 15.0519 259.619 13.7843 262.822C12.3843 266.385 12.1595 270.269 12.4027 274.053C12.5487 276.342 12.8577 278.615 13.1695 280.887C13.1946 280.99 13.1795 281.098 13.1273 281.19C13.0751 281.282 12.9897 281.351 12.8886 281.382C12.7857 281.41 12.6761 281.396 12.5835 281.343C12.4909 281.29 12.4228 281.203 12.3939 281.101L12.3921 281.101Z" fill="#F2F2F2"/>
<path d="M163.517 6.0443C164.242 6.0443 164.83 5.45601 164.83 4.73032C164.83 4.00463 164.242 3.41634 163.517 3.41634C162.792 3.41634 162.204 4.00463 162.204 4.73032C162.204 5.45601 162.792 6.0443 163.517 6.0443Z" fill="white"/>
<path d="M240.3 126.364H84.5249C84.3956 126.364 84.2716 126.312 84.1802 126.221C84.0888 126.13 84.0374 126.005 84.0374 125.876L84.274 125.333L240.3 125.388C240.429 125.388 240.553 125.439 240.645 125.53C240.737 125.621 240.789 125.745 240.789 125.874C240.79 126.004 240.739 126.128 240.648 126.22C240.557 126.312 240.433 126.363 240.304 126.364L240.3 126.364Z" fill="#3F3D56"/>
<path d="M114.156 122.952H113.2V125.677H114.156V122.952Z" fill="#3F3D56"/>
<path d="M142.782 107.285H141.825V125.677H142.782V107.285Z" fill="#3F3D56"/>
<path d="M171.466 85.1672H170.51V125.677H171.466V85.1672Z" fill="#3F3D56"/>
<path d="M200.151 66.2751H199.195V125.677H200.151V66.2751Z" fill="#3F3D56"/>
<path d="M228.836 109.589H227.879V125.677H228.836V109.589Z" fill="#3F3D56"/>
<path d="M199.732 62.9642C201.347 62.9642 202.657 61.6539 202.657 60.0376C202.657 58.4213 201.347 57.111 199.732 57.111C198.116 57.111 196.807 58.4213 196.807 60.0376C196.807 61.6539 198.116 62.9642 199.732 62.9642Z" fill="#0064C0"/>
<path d="M171.508 80.1313C173.123 80.1313 174.433 78.8211 174.433 77.2048C174.433 75.5885 173.123 74.2782 171.508 74.2782C169.892 74.2782 168.583 75.5885 168.583 77.2048C168.583 78.8211 169.892 80.1313 171.508 80.1313Z" fill="#0064C0"/>
<path d="M228.416 107.125C230.032 107.125 231.341 105.814 231.341 104.198C231.341 102.582 230.032 101.271 228.416 101.271C226.801 101.271 225.491 102.582 225.491 104.198C225.491 105.814 226.801 107.125 228.416 107.125Z" fill="#0064C0"/>
<path d="M141.54 227.862V193.332C141.54 192.889 142.055 192.53 142.69 192.53H147.821C148.456 192.53 148.971 192.889 148.971 193.332V227.952L141.54 227.862Z" fill="#3F3D56"/>
<path d="M158.488 227.979V201.595C158.488 201.169 159.003 200.824 159.638 200.824H164.77C165.405 200.824 165.919 201.169 165.919 201.595V227.922L158.488 227.979Z" fill="#3F3D56"/>
<path d="M192.385 227.917V214.498C192.34 214.338 192.853 214.199 193.535 214.187H198.666C199.348 214.199 199.861 214.338 199.816 214.498V227.952L192.385 227.917Z" fill="#3F3D56"/>
<path d="M124.591 227.917V214.498C124.591 214.326 125.106 214.187 125.741 214.187H130.873C131.508 214.187 132.023 214.327 132.023 214.498V227.952L124.591 227.917Z" fill="#3F3D56"/>
<path d="M175.436 227.784V162.985C175.436 162.154 175.951 161.48 176.586 161.48H181.718C182.353 161.48 182.867 162.154 182.867 162.985V227.952L175.436 227.784Z" fill="#0064C0"/>
<path d="M221.931 228.549H105.874C105.752 228.549 105.635 228.5 105.549 228.414C105.462 228.328 105.414 228.21 105.414 228.088C105.414 227.966 105.462 227.849 105.549 227.762C105.635 227.676 105.752 227.627 105.874 227.627H221.931C222.053 227.627 222.17 227.676 222.257 227.762C222.343 227.849 222.392 227.966 222.392 228.088C222.392 228.21 222.343 228.328 222.257 228.414C222.17 228.5 222.053 228.549 221.931 228.549Z" fill="#3F3D56"/>
<path d="M355.539 282H0.460543C0.3384 282 0.221258 281.951 0.13489 281.865C0.048521 281.779 0 281.661 0 281.539C0 281.417 0.048521 281.3 0.13489 281.213C0.221258 281.127 0.3384 281.078 0.460543 281.078H355.539C355.662 281.078 355.779 281.127 355.865 281.213C355.951 281.3 356 281.417 356 281.539C356 281.661 355.951 281.779 355.865 281.865C355.779 281.951 355.662 282 355.539 282Z" fill="#CACACA"/>
<path d="M113.809 119.921C115.424 119.921 116.734 118.611 116.734 116.995C116.734 115.378 115.424 114.068 113.809 114.068C112.193 114.068 110.884 115.378 110.884 116.995C110.884 118.611 112.193 119.921 113.809 119.921Z" fill="#0064C0"/>
<path d="M142.363 103.794C143.978 103.794 145.288 102.484 145.288 100.867C145.288 99.251 143.978 97.9407 142.363 97.9407C140.747 97.9407 139.438 99.251 139.438 100.867C139.438 102.484 140.747 103.794 142.363 103.794Z" fill="#0064C0"/>
</g>
<defs>
<clipPath id="clip0_345_2">
<rect width="356" height="282" fill="white"/>
</clipPath>
</defs>
</svg>
