<svg width="355" height="186" viewBox="0 0 355 186" fill="none" xmlns="http://www.w3.org/2000/svg">
<rect width="354.072" height="186" rx="10" fill="#37AAEB" fill-opacity="0.9"/>
<path d="M155.275 132.642V141.976H154.573C154.465 141.976 154.374 141.956 154.3 141.917C154.231 141.878 154.159 141.816 154.086 141.729L148.814 134.91C148.823 135.027 148.829 135.142 148.834 135.255C148.842 135.368 148.847 135.474 148.847 135.573V141.976H147.631V132.642H148.346C148.467 132.642 148.558 132.657 148.619 132.687C148.68 132.713 148.747 132.776 148.821 132.876L154.105 139.701C154.092 139.575 154.081 139.454 154.073 139.337C154.068 139.216 154.066 139.103 154.066 138.999V132.642H155.275ZM159.936 135.268C160.421 135.268 160.859 135.348 161.249 135.508C161.643 135.664 161.977 135.892 162.25 136.191C162.527 136.486 162.739 136.843 162.887 137.263C163.034 137.679 163.108 138.147 163.108 138.667C163.108 139.187 163.034 139.658 162.887 140.078C162.739 140.498 162.527 140.856 162.25 141.15C161.977 141.445 161.643 141.673 161.249 141.833C160.859 141.989 160.421 142.067 159.936 142.067C159.446 142.067 159.004 141.989 158.61 141.833C158.22 141.673 157.886 141.445 157.609 141.15C157.331 140.856 157.117 140.498 156.965 140.078C156.818 139.658 156.744 139.187 156.744 138.667C156.744 138.147 156.818 137.679 156.965 137.263C157.117 136.843 157.331 136.486 157.609 136.191C157.886 135.892 158.22 135.664 158.61 135.508C159.004 135.348 159.446 135.268 159.936 135.268ZM159.936 141.079C160.56 141.079 161.025 140.869 161.333 140.448C161.641 140.028 161.795 139.437 161.795 138.674C161.795 137.911 161.641 137.32 161.333 136.899C161.025 136.475 160.56 136.262 159.936 136.262C159.303 136.262 158.831 136.475 158.519 136.899C158.211 137.32 158.057 137.911 158.057 138.674C158.057 139.437 158.211 140.028 158.519 140.448C158.831 140.869 159.303 141.079 159.936 141.079ZM166.462 142.08C165.929 142.08 165.518 141.93 165.227 141.631C164.941 141.332 164.798 140.906 164.798 140.351V136.399H164.031C163.958 136.399 163.895 136.377 163.843 136.334C163.795 136.286 163.771 136.217 163.771 136.126V135.612L164.844 135.463L165.13 133.493C165.147 133.42 165.18 133.363 165.227 133.324C165.279 133.281 165.344 133.259 165.422 133.259H166.066V135.476H167.938V136.399H166.066V140.266C166.066 140.526 166.129 140.721 166.254 140.851C166.384 140.977 166.549 141.04 166.748 141.04C166.865 141.04 166.965 141.025 167.047 140.994C167.134 140.964 167.208 140.932 167.268 140.897C167.329 140.858 167.381 140.823 167.424 140.793C167.468 140.763 167.507 140.747 167.541 140.747C167.585 140.747 167.617 140.758 167.639 140.78C167.665 140.797 167.691 140.828 167.717 140.871L168.094 141.482C167.886 141.673 167.639 141.82 167.353 141.924C167.067 142.028 166.77 142.08 166.462 142.08ZM174.044 133.766V136.893H177.788V138.017H174.044V141.976H172.653V132.642H178.438V133.766H174.044ZM181.987 135.268C182.473 135.268 182.91 135.348 183.3 135.508C183.695 135.664 184.028 135.892 184.301 136.191C184.579 136.486 184.791 136.843 184.938 137.263C185.086 137.679 185.159 138.147 185.159 138.667C185.159 139.187 185.086 139.658 184.938 140.078C184.791 140.498 184.579 140.856 184.301 141.15C184.028 141.445 183.695 141.673 183.3 141.833C182.91 141.989 182.473 142.067 181.987 142.067C181.498 142.067 181.056 141.989 180.661 141.833C180.271 141.673 179.938 141.445 179.66 141.15C179.383 140.856 179.168 140.498 179.017 140.078C178.869 139.658 178.796 139.187 178.796 138.667C178.796 138.147 178.869 137.679 179.017 137.263C179.168 136.843 179.383 136.486 179.66 136.191C179.938 135.892 180.271 135.664 180.661 135.508C181.056 135.348 181.498 135.268 181.987 135.268ZM181.987 141.079C182.611 141.079 183.077 140.869 183.385 140.448C183.692 140.028 183.846 139.437 183.846 138.674C183.846 137.911 183.692 137.32 183.385 136.899C183.077 136.475 182.611 136.262 181.987 136.262C181.355 136.262 180.882 136.475 180.57 136.899C180.263 137.32 180.109 137.911 180.109 138.674C180.109 139.437 180.263 140.028 180.57 140.448C180.882 140.869 181.355 141.079 181.987 141.079ZM192.067 135.372V141.976H191.306C191.133 141.976 191.02 141.891 190.968 141.722L190.877 141.059C190.734 141.211 190.585 141.35 190.429 141.475C190.273 141.601 190.106 141.709 189.928 141.8C189.75 141.887 189.562 141.954 189.363 142.002C189.163 142.054 188.949 142.08 188.719 142.08C188.355 142.08 188.034 142.019 187.757 141.898C187.484 141.777 187.254 141.608 187.068 141.391C186.882 141.17 186.741 140.906 186.646 140.598C186.55 140.29 186.503 139.95 186.503 139.577V135.372H187.777V139.577C187.777 140.05 187.885 140.418 188.102 140.682C188.318 140.942 188.65 141.072 189.096 141.072C189.421 141.072 189.724 140.997 190.006 140.845C190.288 140.689 190.552 140.477 190.799 140.208V135.372H192.067ZM195.025 136.288C195.168 136.137 195.318 135.998 195.474 135.872C195.63 135.747 195.795 135.641 195.968 135.554C196.146 135.463 196.334 135.394 196.533 135.346C196.737 135.294 196.954 135.268 197.183 135.268C197.547 135.268 197.866 135.329 198.139 135.45C198.416 135.571 198.648 135.742 198.834 135.963C199.021 136.18 199.162 136.442 199.257 136.75C199.352 137.058 199.4 137.398 199.4 137.77V141.976H198.126V137.77C198.126 137.298 198.018 136.932 197.801 136.672C197.584 136.408 197.253 136.275 196.806 136.275C196.481 136.275 196.176 136.353 195.89 136.509C195.608 136.661 195.346 136.869 195.103 137.133V141.976H193.836V135.372H194.596C194.774 135.372 194.885 135.456 194.928 135.625L195.025 136.288ZM205.368 136.971C205.16 136.698 204.934 136.507 204.692 136.399C204.453 136.291 204.185 136.236 203.886 136.236C203.305 136.236 202.854 136.447 202.534 136.867C202.217 137.283 202.059 137.892 202.059 138.693C202.059 139.114 202.094 139.473 202.163 139.772C202.237 140.067 202.341 140.31 202.475 140.5C202.614 140.687 202.783 140.825 202.982 140.916C203.182 141.003 203.407 141.046 203.658 141.046C204.027 141.046 204.345 140.964 204.614 140.799C204.882 140.635 205.134 140.403 205.368 140.104V136.971ZM206.642 132.382V141.976H205.875C205.697 141.976 205.587 141.891 205.543 141.722L205.433 140.962C205.151 141.296 204.83 141.564 204.471 141.768C204.115 141.967 203.704 142.067 203.236 142.067C202.859 142.067 202.516 141.993 202.209 141.846C201.905 141.699 201.645 141.484 201.429 141.202C201.212 140.916 201.045 140.563 200.928 140.143C200.811 139.723 200.753 139.239 200.753 138.693C200.753 138.204 200.818 137.749 200.948 137.328C201.078 136.908 201.266 136.544 201.513 136.236C201.76 135.929 202.059 135.688 202.41 135.515C202.761 135.337 203.158 135.248 203.6 135.248C203.998 135.248 204.336 135.313 204.614 135.443C204.895 135.573 205.147 135.758 205.368 135.996V132.382H206.642Z" fill="white"/>
<path d="M158.361 114.943V71.0573C158.361 70.2838 158.989 69.6567 159.762 69.6567H186.961C187.332 69.6567 187.688 69.8042 187.951 70.0669L195.301 77.4166C195.563 77.6793 195.711 78.0355 195.711 78.407V114.943C195.711 115.716 195.084 116.343 194.31 116.343H159.762C158.989 116.343 158.361 115.716 158.361 114.943Z" stroke="#F5F5F5" stroke-width="1.5" stroke-linecap="round" stroke-linejoin="round"/>
<path d="M186.374 77.5934V70.482C186.374 70.0262 186.743 69.6567 187.199 69.6567C187.418 69.6567 187.628 69.7436 187.783 69.8984L195.469 77.5851C195.624 77.7399 195.711 77.9498 195.711 78.1687C195.711 78.6245 195.341 78.994 194.885 78.994H187.774C187.001 78.994 186.374 78.367 186.374 77.5934Z" fill="#F5F5F5" stroke="#F5F5F5" stroke-width="1.5" stroke-linecap="round" stroke-linejoin="round"/>
</svg>
