<?xml version="1.0" encoding="UTF-8"?>
<!DOCTYPE svg PUBLIC "-//W3C//DTD SVG 1.1//EN" "http://www.w3.org/Graphics/SVG/1.1/DTD/svg11.dtd">
<svg xmlns="http://www.w3.org/2000/svg" version="1.1" width="390px" height="207px" style="shape-rendering:geometricPrecision; text-rendering:geometricPrecision; image-rendering:optimizeQuality; fill-rule:evenodd; clip-rule:evenodd" xmlns:xlink="http://www.w3.org/1999/xlink">
<g><path style="opacity:1" fill="#145da0" d="M -0.5,-0.5 C 129.5,-0.5 259.5,-0.5 389.5,-0.5C 389.5,50.1667 389.5,100.833 389.5,151.5C 350.619,175.817 309.619,179.984 266.5,164C 260.5,161 254.5,158 248.5,155C 214.435,132.606 180.102,110.606 145.5,89C 110.228,74.0474 77.8942,78.714 48.5,103C 32.2986,119.368 15.9652,135.535 -0.5,151.5C -0.5,100.833 -0.5,50.1667 -0.5,-0.5 Z"/></g>
<g><path style="opacity:0.988" fill="#2d8abf" d="M 389.5,151.5 C 389.5,158.833 389.5,166.167 389.5,173.5C 342.095,194.245 294.428,194.745 246.5,175C 209.833,158.667 173.167,142.333 136.5,126C 111.942,117.618 87.9424,118.952 64.5,130C 42.6794,144.33 21.0127,158.83 -0.5,173.5C -0.5,166.167 -0.5,158.833 -0.5,151.5C 15.9652,135.535 32.2986,119.368 48.5,103C 77.8942,78.714 110.228,74.0474 145.5,89C 180.102,110.606 214.435,132.606 248.5,155C 254.5,158 260.5,161 266.5,164C 309.619,179.984 350.619,175.817 389.5,151.5 Z"/></g>
</svg>
