<svg width="372" height="269" viewBox="0 0 372 269" fill="none" xmlns="http://www.w3.org/2000/svg">
<g clip-path="url(#clip0_13_10)">
<path d="M33.6208 117.485C26.7338 123.377 38.0034 175.095 38.0034 175.095C38.0034 175.095 40.5077 253.982 45.8295 257.583C51.1512 261.184 63.0469 257.256 67.7425 256.601C72.4381 255.946 68.3686 207.174 61.4816 189.17C54.5947 171.167 59.9164 144.981 59.9164 144.981L97.1687 152.509C97.1687 152.509 74.6295 172.477 75.5686 176.732C76.5078 180.987 100.612 195.39 104.995 196.044C109.377 196.699 117.83 169.858 125.343 151.527C132.856 133.197 74.0034 121.413 74.0034 121.413L65.8643 105.373C65.8643 105.373 40.5077 111.593 33.6208 117.485Z" fill="#2F2E41"/>
<path d="M52.3174 258.941C52.3174 258.941 50.0457 267.255 52.3174 267.255C54.589 267.255 58.7536 269.63 65.1899 268.838C71.6261 268.047 69.7331 259.733 65.1899 258.545C60.6466 257.358 61.7825 247.856 61.7825 247.856C60.268 244.689 53.0745 248.648 53.0745 248.648L52.3174 258.941Z" fill="#2F2E41"/>
<path d="M84.5678 192.831C84.5678 192.831 80.6706 200.457 82.8911 200.958C85.1116 201.459 88.7036 204.699 95.1548 205.344C101.606 205.99 101.432 197.445 97.2307 195.283C93.0291 193.12 96.0556 184.083 96.0556 184.083C95.214 180.653 87.3839 182.937 87.3839 182.937L84.5678 192.831Z" fill="#2F2E41"/>
<path d="M37.8468 46.6171C38.4729 47.9264 35.6555 64.293 35.6555 64.293L38.1599 68.8757C38.1599 68.8757 52.5599 62.9838 50.3686 62.0018C48.1773 61.0197 48.4903 48.9084 48.4903 48.9084C48.4903 48.9084 37.2208 45.3078 37.8468 46.6171Z" fill="#F9B499"/>
<path d="M43.2668 51.6621C53.8673 51.6621 62.4608 42.6764 62.4608 31.5921C62.4608 20.5077 53.8673 11.5221 43.2668 11.5221C32.6663 11.5221 24.0729 20.5077 24.0729 31.5921C24.0729 42.6764 32.6663 51.6621 43.2668 51.6621Z" fill="#2F2E41"/>
<path d="M41.9431 21.1081C46.3295 21.1081 49.8854 17.3899 49.8854 12.8033C49.8854 8.21665 46.3295 4.49846 41.9431 4.49846C37.5567 4.49846 34.0008 8.21665 34.0008 12.8033C34.0008 17.3899 37.5567 21.1081 41.9431 21.1081Z" fill="#2F2E41"/>
<path d="M45.4179 16.5648C45.6927 16.5946 45.9689 16.6096 46.2452 16.6097C47.2882 16.6097 48.321 16.3949 49.2846 15.9775C50.2482 15.5602 51.1237 14.9484 51.8613 14.1772C52.5988 13.4061 53.1838 12.4906 53.5829 11.483C53.9821 10.4754 54.1875 9.39544 54.1875 8.30484C54.1875 7.21423 53.9821 6.1343 53.5829 5.12671C53.1838 4.11912 52.5988 3.20361 51.8613 2.43243C51.1237 1.66126 50.2482 1.04953 49.2846 0.632168C48.321 0.214811 47.2882 -3.25026e-08 46.2452 0C45.9689 7.43107e-05 45.6927 0.0150607 45.4179 0.0449008C47.3704 0.258811 49.178 1.22128 50.4919 2.7466C51.8057 4.27192 52.5328 6.25201 52.5328 8.30484C52.5328 10.3577 51.8057 12.3378 50.4919 13.8631C49.178 15.3884 47.3704 16.3509 45.4179 16.5648Z" fill="#2F2E41"/>
<path d="M43.7947 55.1278C51.056 55.1278 56.9425 48.9726 56.9425 41.3798C56.9425 33.787 51.056 27.6318 43.7947 27.6318C36.5333 27.6318 30.6469 33.787 30.6469 41.3798C30.6469 48.9726 36.5333 55.1278 43.7947 55.1278Z" fill="#F9B499"/>
<path d="M24.8555 62.4927C20.7859 63.4747 13.899 73.9494 13.899 73.9494L24.8555 85.406C24.8555 85.406 32.6816 116.175 33.6207 117.485C39.7733 126.062 67.4295 107.01 67.4295 107.01C67.4295 107.01 66.3338 97.681 66.9599 93.0983C67.5621 88.6909 64.6121 79.8414 64.6121 79.8414C64.6121 79.8414 74.9426 75.2587 72.7513 70.6761C70.56 66.0934 57.099 55.6188 51.4643 59.2194C45.8295 62.8201 34.5599 59.2194 34.5599 59.2194C34.5599 59.2194 28.9251 61.5108 24.8555 62.4927Z" fill="#145DA0"/>
<path d="M104.838 128.45C104.838 128.45 122.682 144.49 127.064 141.216C131.447 137.943 110.16 126.486 110.16 126.486L104.838 128.45Z" fill="#F9B499"/>
<path d="M24.699 122.886C27.2034 125.832 39.099 118.303 37.574 114.96C36.0489 111.616 26.5773 118.303 26.5773 118.303C26.5773 118.303 22.1947 119.94 24.699 122.886Z" fill="#F9B499"/>
<path d="M24.8555 78.532L11.7077 104.064C11.7077 104.064 26.7338 117.157 28.612 117.485C30.4903 117.812 24.8555 126.323 24.8555 126.323C24.8555 126.323 7.95114 113.884 1.37721 107.665C-5.19671 101.445 13.899 73.9494 13.899 73.9494L19.5338 70.3487L24.8555 78.532Z" fill="#145DA0"/>
<path d="M63.0469 77.5501L78.386 102.427C78.386 102.427 101.864 129.923 104.995 131.233C108.125 132.542 111.882 126.323 111.882 126.323L83.7078 90.6433L73.0643 70.6761L68.9947 69.0394L63.0469 77.5501Z" fill="#145DA0"/>
<path d="M43.2668 33.3502C50.5775 33.3502 56.504 29.632 56.504 25.0454C56.504 20.4588 50.5775 16.7406 43.2668 16.7406C35.9561 16.7406 30.0297 20.4588 30.0297 25.0454C30.0297 29.632 35.9561 33.3502 43.2668 33.3502Z" fill="#2F2E41"/>
<path d="M80.4016 204.231C79.9677 204.232 79.5518 204.412 79.245 204.733C78.9382 205.054 78.7657 205.489 78.7652 205.943V264.302C78.7657 264.756 78.9382 265.191 79.245 265.511C79.5518 265.832 79.9677 266.013 80.4016 266.013H270.711C271.144 266.012 271.56 265.832 271.867 265.511C272.174 265.19 272.346 264.756 272.347 264.302V205.942C272.346 205.489 272.174 205.054 271.867 204.733C271.56 204.412 271.144 204.232 270.711 204.231L80.4016 204.231Z" fill="#E6E6E6"/>
<path d="M82.8659 261.725H268.246V208.519H82.8659V261.725Z" fill="white"/>
<path d="M244.847 250.687C244.49 250.687 244.138 250.76 243.808 250.902C243.479 251.044 243.18 251.253 242.928 251.516C242.676 251.78 242.476 252.092 242.339 252.436C242.203 252.78 242.133 253.149 242.133 253.522C242.133 253.894 242.203 254.263 242.339 254.607C242.476 254.951 242.676 255.264 242.928 255.527C243.18 255.79 243.479 255.999 243.808 256.141C244.138 256.283 244.49 256.356 244.847 256.356H255.689C256.408 256.356 257.097 256.057 257.606 255.526C258.114 254.994 258.4 254.273 258.4 253.522C258.4 252.77 258.114 252.049 257.606 251.517C257.097 250.986 256.408 250.687 255.689 250.687H244.847Z" fill="#145DA0"/>
<path d="M258.4 245.19H133.237V245.935H258.4V245.19Z" fill="#E6E6E6"/>
<path d="M107.074 251.631C115.793 251.631 122.862 244.24 122.862 235.122C122.862 226.005 115.793 218.614 107.074 218.614C98.3545 218.614 91.286 226.005 91.286 235.122C91.286 244.24 98.3545 251.631 107.074 251.631Z" fill="#145DA0"/>
<path d="M133.435 241.026L133.039 240.405L146.045 231.338L154.964 235.815L167.793 227.245L193.312 238.627L213.634 228.189L233.367 236.554L258.163 213.59L258.636 214.148L233.509 237.419L213.662 229.005L193.332 239.447L167.859 228.085L155.014 236.667L146.103 232.195L133.435 241.026Z" fill="#3F3D56"/>
<path d="M135.555 251.077C135.25 251.077 134.948 251.139 134.667 251.261C134.385 251.382 134.129 251.561 133.914 251.786C133.698 252.011 133.527 252.278 133.411 252.573C133.294 252.867 133.234 253.182 133.234 253.501C133.234 253.819 133.294 254.135 133.411 254.429C133.527 254.723 133.698 254.991 133.914 255.216C134.129 255.441 134.385 255.619 134.667 255.741C134.948 255.863 135.25 255.925 135.555 255.925H159.803C160.417 255.924 161.006 255.668 161.44 255.214C161.874 254.759 162.118 254.143 162.118 253.501C162.118 252.859 161.874 252.243 161.44 251.788C161.006 251.334 160.417 251.078 159.803 251.077H135.555Z" fill="#E6E6E6"/>
<path d="M113.104 227.737H115.571L110.438 233.049C109.541 233.973 108.332 234.491 107.073 234.491C105.814 234.491 104.606 233.973 103.709 233.049L98.5764 227.737H101.043L104.943 231.772C105.511 232.357 106.276 232.686 107.074 232.686C107.871 232.686 108.636 232.357 109.204 231.772L113.104 227.737ZM101.012 242.508H98.545L103.71 237.163C104.606 236.239 105.815 235.721 107.074 235.721C108.333 235.721 109.542 236.239 110.438 237.163L115.603 242.508H113.136L109.204 238.44C108.636 237.854 107.871 237.526 107.074 237.526C106.276 237.526 105.511 237.854 104.943 238.44L101.012 242.508Z" fill="white"/>
<path d="M105.183 17.3007C104.749 17.3012 104.333 17.4816 104.026 17.8024C103.72 18.1232 103.547 18.5581 103.547 19.0118V77.3712C103.547 77.8249 103.72 78.2598 104.026 78.5805C104.333 78.9013 104.749 79.0817 105.183 79.0823H295.492C295.926 79.0817 296.342 78.9013 296.649 78.5805C296.955 78.2598 297.128 77.8248 297.128 77.3712V19.0117C297.128 18.5581 296.955 18.1232 296.649 17.8024C296.342 17.4816 295.926 17.3012 295.492 17.3007L105.183 17.3007Z" fill="#E6E6E6"/>
<path d="M107.647 74.7944H293.028V21.5886H107.647V74.7944Z" fill="white"/>
<path d="M269.628 63.7566C268.909 63.7566 268.22 64.0552 267.711 64.5868C267.203 65.1183 266.918 65.8393 266.918 66.591C266.918 67.3427 267.203 68.0636 267.711 68.5951C268.22 69.1267 268.909 69.4253 269.628 69.4253H280.471C281.189 69.4253 281.879 69.1267 282.387 68.5951C282.896 68.0636 283.181 67.3427 283.181 66.591C283.181 65.8393 282.896 65.1183 282.387 64.5868C281.879 64.0552 281.189 63.7566 280.471 63.7566H269.628Z" fill="#145DA0"/>
<path d="M283.181 58.2589H158.018V59.0046H283.181V58.2589Z" fill="#E6E6E6"/>
<path d="M131.855 64.7C140.575 64.7 147.643 57.3089 147.643 48.1915C147.643 39.0741 140.575 31.683 131.855 31.683C123.136 31.683 116.067 39.0741 116.067 48.1915C116.067 57.3089 123.136 64.7 131.855 64.7Z" fill="#145DA0"/>
<path d="M158.216 54.0945L157.821 53.474L170.827 44.4075L179.746 48.8841L192.574 40.314L192.747 40.391L218.093 51.6966L238.415 41.2582L258.149 49.6235L282.945 26.6588L283.418 27.2171L258.291 50.4883L238.443 42.0746L218.114 52.5167L192.641 41.1544L179.795 49.7361L170.884 45.2635L158.216 54.0945Z" fill="#3F3D56"/>
<path d="M160.336 64.1465C159.722 64.1473 159.133 64.4031 158.699 64.8575C158.265 65.3119 158.021 65.9279 158.021 66.5701C158.021 67.2124 158.265 67.8284 158.699 68.2828C159.133 68.7372 159.722 68.9929 160.336 68.9938H184.584C185.199 68.9938 185.789 68.7384 186.223 68.2839C186.658 67.8294 186.902 67.2129 186.902 66.5701C186.902 65.9274 186.658 65.3109 186.223 64.8564C185.789 64.4019 185.199 64.1465 184.584 64.1465H160.336Z" fill="#E6E6E6"/>
<path d="M138.208 46.2646C138.503 44.1988 136.998 43.0882 134.942 42.3474L135.609 39.5489L133.979 39.1244L133.33 41.8491C132.902 41.7375 132.462 41.6322 132.025 41.5279L132.679 38.7852L131.051 38.3607L130.383 41.1582C130.029 41.0738 129.681 40.9903 129.343 40.9025L129.345 40.8938L127.098 40.3072L126.665 42.1266C126.665 42.1266 127.874 42.4163 127.848 42.4342C128.074 42.4624 128.279 42.5821 128.421 42.7673C128.563 42.9526 128.63 43.1887 128.607 43.4249L127.847 46.613C127.905 46.628 127.961 46.6469 128.017 46.6697L127.845 46.6251L126.779 51.0911C126.756 51.1691 126.718 51.2414 126.667 51.304C126.617 51.3666 126.556 51.4181 126.486 51.4557C126.417 51.4933 126.341 51.5162 126.263 51.5231C126.185 51.53 126.107 51.5207 126.033 51.4957C126.049 51.5205 124.848 51.1867 124.848 51.1867L124.04 53.1371L126.16 53.6897C126.555 53.793 126.941 53.9012 127.321 54.0031L126.647 56.8341L128.274 57.2586L128.942 54.4582C129.386 54.5843 129.818 54.7008 130.24 54.8104L129.575 57.5977L131.204 58.0223L131.878 55.1971C134.656 55.7468 136.745 55.5251 137.624 52.8984C138.332 50.783 137.589 49.5628 136.127 48.7667C137.192 48.509 137.993 47.7769 138.207 46.2646L138.208 46.2646ZM134.485 51.7223C133.981 53.8377 130.575 52.6946 129.471 52.4074L130.365 48.6575C131.47 48.9457 135.01 49.5163 134.486 51.7223H134.485ZM134.988 46.2341C134.529 48.1583 131.694 47.1806 130.774 46.941L131.585 43.5399C132.505 43.7796 135.467 44.2269 134.988 46.2341Z" fill="white"/>
<path d="M180.055 110.766C179.621 110.767 179.205 110.947 178.898 111.268C178.591 111.589 178.419 112.023 178.418 112.477V170.837C178.419 171.29 178.591 171.725 178.898 172.046C179.205 172.367 179.621 172.547 180.055 172.548H370.364C370.797 172.547 371.213 172.367 371.52 172.046C371.827 171.725 371.999 171.29 372 170.837V112.477C371.999 112.023 371.827 111.589 371.52 111.268C371.213 110.947 370.797 110.767 370.364 110.766L180.055 110.766Z" fill="#E6E6E6"/>
<path d="M182.519 168.26H367.899V115.054H182.519V168.26Z" fill="white"/>
<path d="M344.5 157.222C343.781 157.222 343.091 157.521 342.583 158.052C342.075 158.584 341.789 159.305 341.789 160.056C341.789 160.808 342.075 161.529 342.583 162.06C343.091 162.592 343.781 162.891 344.5 162.891H355.342C356.061 162.891 356.75 162.592 357.259 162.06C357.767 161.529 358.053 160.808 358.053 160.056C358.053 159.305 357.767 158.584 357.259 158.052C356.75 157.521 356.061 157.222 355.342 157.222H344.5Z" fill="#145DA0"/>
<path d="M358.053 151.724H232.89V152.47H358.053V151.724Z" fill="#E6E6E6"/>
<path d="M206.727 158.165C215.446 158.165 222.515 150.774 222.515 141.657C222.515 132.539 215.446 125.148 206.727 125.148C198.007 125.148 190.939 132.539 190.939 141.657C190.939 150.774 198.007 158.165 206.727 158.165Z" fill="#145DA0"/>
<path d="M233.088 147.56L232.692 146.94L245.698 137.873L254.617 142.35L267.445 133.78L267.619 133.857L292.965 145.162L313.287 134.724L333.021 143.089L357.816 120.124L358.289 120.683L333.162 143.954L313.315 135.54L292.986 145.982L267.513 134.62L254.666 143.202L245.756 138.729L233.088 147.56Z" fill="#3F3D56"/>
<path d="M235.208 157.612C234.593 157.612 234.003 157.867 233.569 158.322C233.134 158.776 232.89 159.393 232.89 160.035C232.89 160.678 233.134 161.295 233.569 161.749C234.003 162.204 234.593 162.459 235.208 162.459H259.456C260.071 162.459 260.66 162.204 261.095 161.749C261.529 161.295 261.774 160.678 261.774 160.035C261.774 159.393 261.529 158.776 261.095 158.322C260.66 157.867 260.071 157.612 259.456 157.612H235.208Z" fill="#E6E6E6"/>
<path d="M206.725 152.537L213.116 143.125L206.725 147.071L200.338 143.125L206.725 152.537H206.725Z" fill="white"/>
<path d="M206.725 145.807H206.725L213.113 141.859L206.725 130.777H206.725L200.338 141.859L206.725 145.807Z" fill="white"/>
</g>
<defs>
<clipPath id="clip0_13_10">
<rect width="372" height="269" fill="white"/>
</clipPath>
</defs>
</svg>
