<svg width="21" height="20" viewBox="0 0 21 20" fill="none" xmlns="http://www.w3.org/2000/svg">
<g clip-path="url(#clip0_32_115)">
<path d="M18.3698 3.09091V0.181824H0V17.2727H2.62426V19.8182H20.6192V3.09091H18.3698ZM0.749789 16.5455V0.909096H17.62V3.09091H2.62426V16.5455H0.749789ZM19.8694 19.0909H3.37405V17.2727V3.81819H18.3698H19.8694V19.0909Z" fill="white"/>
<path d="M16.5417 11.0417H11.9583V6.45833C11.9583 6.20488 11.7535 6 11.5 6C11.2465 6 11.0417 6.20488 11.0417 6.45833V11.0417H6.45833C6.20488 11.0417 6 11.2465 6 11.5C6 11.7535 6.20488 11.9583 6.45833 11.9583H11.0417V16.5417C11.0417 16.7951 11.2465 17 11.5 17C11.7535 17 11.9583 16.7951 11.9583 16.5417V11.9583H16.5417C16.7951 11.9583 17 11.7535 17 11.5C17 11.2465 16.7951 11.0417 16.5417 11.0417Z" fill="white"/>
</g>
<defs>
<clipPath id="clip0_32_115">
<rect width="20.6192" height="20" fill="white"/>
</clipPath>
</defs>
</svg>
