<svg width="22" height="20" viewBox="0 0 22 20" fill="none" xmlns="http://www.w3.org/2000/svg">
<path d="M19.0756 3.09091V0.181824H0.705811V17.2727H3.33007V19.8182H21.325V3.09091H19.0756ZM1.4556 16.5455V0.909096H18.3258V3.09091H3.33007V16.5455H1.4556ZM20.5752 19.0909H4.07986V17.2727V3.81819H19.0756H20.5752V19.0909Z" fill="#272C33"/>
<path d="M16.4514 11.0909H12.7025V7.45455C12.7025 7.25346 12.5349 7.09091 12.3276 7.09091C12.1203 7.09091 11.9527 7.25346 11.9527 7.45455V11.0909H8.20375C7.99644 11.0909 7.82886 11.2535 7.82886 11.4545C7.82886 11.6556 7.99644 11.8182 8.20375 11.8182H11.9527V15.4545C11.9527 15.6556 12.1203 15.8182 12.3276 15.8182C12.5349 15.8182 12.7025 15.6556 12.7025 15.4545V11.8182H16.4514C16.6587 11.8182 16.8263 11.6556 16.8263 11.4545C16.8263 11.2535 16.6587 11.0909 16.4514 11.0909Z" fill="#272C33"/>
</svg>
