<svg width="385" height="265" viewBox="0 0 385 265" fill="none" xmlns="http://www.w3.org/2000/svg">
<path d="M198 24H378C381.312 24 384 18.6234 384 12C384 5.37556 381.312 0 378 0H198C194.688 0 192 5.37556 192 12C192 18.6244 194.688 24 198 24Z" fill="white"/>
<path d="M372.939 120.455H12.03C5.389 120.455 0 125.845 0 132.485C0 139.125 5.39 144.515 12.03 144.515H372.939C379.58 144.515 384.969 139.125 384.969 132.485C384.969 125.845 379.58 120.455 372.939 120.455Z" fill="white"/>
<path d="M186 241H5.99986C2.68772 241 0 246.377 0 253C0 259.624 2.68822 265 5.99986 265H186C189.312 265 192 259.623 192 253C192.001 246.376 189.312 241 186 241Z" fill="white"/>
</svg>
