<svg width="18" height="20" viewBox="0 0 18 20" fill="none" xmlns="http://www.w3.org/2000/svg">
<path d="M14.5492 1.13799C14.4812 1.09046 14.3975 1.0719 14.3158 1.08683C14.2345 1.10143 14.1622 1.14774 14.115 1.21568L6.92246 11.5479C6.89471 11.5875 6.87674 11.6332 6.86974 11.6813L6.39536 14.9413C6.3783 15.058 6.42889 15.1746 6.52577 15.242C6.57908 15.2791 6.64155 15.2981 6.70399 15.2981C6.75517 15.2981 6.80667 15.2856 6.8533 15.26L9.7458 13.6836C9.78845 13.6605 9.82502 13.6279 9.85242 13.5879L17.0447 3.25574C17.1431 3.11437 17.1084 2.91999 16.967 2.82158L14.5492 1.13799ZM9.38264 13.1711L7.10249 14.4136L7.47664 11.844L14.4486 1.8284L16.3546 3.15521L9.38264 13.1711Z" fill="#145DA0"/>
<path d="M16.5679 7.38276C16.3954 7.38276 16.2559 7.52229 16.2559 7.69476V18.1622C16.2559 18.8316 15.7115 19.376 15.0421 19.376H1.87074C1.20137 19.376 0.656928 18.8316 0.656928 18.1622V4.99083C0.656928 4.32148 1.20137 3.77701 1.87074 3.77701H9.63427C9.80671 3.77701 9.94624 3.63748 9.94624 3.46504C9.94624 3.29261 9.80671 3.15308 9.63427 3.15308H1.87074C0.857396 3.15308 0.032959 3.97751 0.032959 4.99083V18.1622C0.032959 19.1755 0.857396 20 1.87074 20H15.0421C16.0554 20 16.8799 19.1755 16.8799 18.1622V7.69476C16.8799 7.52229 16.7403 7.38276 16.5679 7.38276Z" fill="#145DA0"/>
<path d="M17.828 1.72086L15.3255 0.0524844C15.1817 -0.0431406 14.9882 -0.00448432 14.8928 0.139047C14.7972 0.282516 14.8359 0.475984 14.9793 0.571672L17.4819 2.24002C17.5352 2.27536 17.5952 2.29242 17.6547 2.29242C17.7555 2.29242 17.8545 2.24367 17.9145 2.15348C18.0102 2.00998 17.9715 1.81652 17.828 1.72086Z" fill="#145DA0"/>
</svg>
