<svg width="14" height="67" viewBox="0 0 14 67" fill="none" xmlns="http://www.w3.org/2000/svg">
<path d="M7 14C10.8596 14 14 10.8596 14 7C14 3.14038 10.8596 0 7 0C3.14038 0 0 3.14038 0 7C0 10.8596 3.14038 14 7 14Z" fill="white"/>
<path d="M7 52.6564C3.14038 52.6564 0 55.7968 0 59.6564C0 63.5161 3.14038 66.6564 7 66.6564C10.8596 66.6564 14 63.5161 14 59.6564C14 55.7968 10.8596 52.6564 7 52.6564Z" fill="white"/>
<path d="M7 26.3282C3.14038 26.3282 0 29.4686 0 33.3282C0 37.1878 3.14038 40.3282 7 40.3282C10.8596 40.3282 14 37.1878 14 33.3282C14 29.4686 10.8596 26.3282 7 26.3282Z" fill="white"/>
</svg>
