<svg width="20" height="18" viewBox="0 0 20 18" fill="none" xmlns="http://www.w3.org/2000/svg">
<path d="M19.3152 13.1163C19.1678 12.9732 18.9285 12.9732 18.7812 13.1163L15.0355 16.7494V0.366298C15.0355 0.16404 14.8664 0 14.6579 0C14.4494 0 14.2803 0.16404 14.2803 0.366298V16.7493L10.5345 13.1161C10.3871 12.9732 10.148 12.9731 10.0005 13.1162C9.85302 13.2593 9.85302 13.4912 10.0005 13.6342L14.3909 17.8927C14.4646 17.9642 14.5613 17.9999 14.6579 17.9999C14.7545 17.9999 14.8512 17.9642 14.9249 17.8926L19.3152 13.6342C19.4627 13.4912 19.4627 13.2593 19.3152 13.1163Z" fill="#272C33"/>
<path d="M1.36653 0.732596H12.7043C12.9128 0.732596 13.0819 0.568555 13.0819 0.366298C13.0819 0.16404 12.9128 0 12.7043 0H1.36653C1.15801 0 0.988892 0.16404 0.988892 0.366298C0.988892 0.568555 1.15801 0.732596 1.36653 0.732596Z" fill="#272C33"/>
<path d="M1.36653 5.01998H12.7043C12.9128 5.01998 13.0819 4.85594 13.0819 4.65368C13.0819 4.45142 12.9128 4.28738 12.7043 4.28738H1.36653C1.15801 4.28738 0.988892 4.45142 0.988892 4.65368C0.988892 4.85594 1.15801 5.01998 1.36653 5.01998Z" fill="#272C33"/>
<path d="M1.36653 9.30739H12.7043C12.9128 9.30739 13.0819 9.14335 13.0819 8.9411C13.0819 8.73884 12.9128 8.5748 12.7043 8.5748H1.36653C1.15801 8.5748 0.988892 8.73884 0.988892 8.9411C0.988892 9.14335 1.15801 9.30739 1.36653 9.30739Z" fill="#272C33"/>
<path d="M8.76081 12.8622H1.36653C1.15801 12.8622 0.988892 13.0263 0.988892 13.2285C0.988892 13.4308 1.15801 13.5948 1.36653 13.5948H8.76081C8.96933 13.5948 9.13845 13.4308 9.13845 13.2285C9.13845 13.0263 8.9694 12.8622 8.76081 12.8622Z" fill="#272C33"/>
<path d="M8.76081 17.1496H1.36653C1.15801 17.1496 0.988892 17.3136 0.988892 17.5159C0.988892 17.7181 1.15801 17.8822 1.36653 17.8822H8.76081C8.96933 17.8822 9.13845 17.7181 9.13845 17.5159C9.13845 17.3136 8.9694 17.1496 8.76081 17.1496Z" fill="#272C33"/>
</svg>
