<svg width="20" height="18" viewBox="0 0 20 18" fill="none" xmlns="http://www.w3.org/2000/svg">
<g clip-path="url(#clip0_22_177)">
<path d="M17.9132 3.62814C17.7127 3.62814 17.5501 3.78567 17.5501 3.98037V15.8456C17.5501 16.4277 17.0979 16.9251 16.4958 16.9251H2.33882C1.73665 16.9251 1.20918 16.4263 1.20918 15.8422V2.1102C1.20918 1.52614 1.7365 1.07491 2.33846 1.07491H16.4998C16.7004 1.07491 16.861 0.917379 16.861 0.722683C16.861 0.527988 16.6963 0.370453 16.4957 0.370453H2.33846C1.33596 0.370453 0.48291 1.13777 0.48291 2.1102V15.8422C0.48291 16.8146 1.33611 17.6296 2.33882 17.6296H16.4958C17.4983 17.6296 18.2763 16.8163 18.2763 15.8456V3.98037C18.2763 3.78567 18.1137 3.62814 17.9132 3.62814Z" fill="#272C33"/>
<path d="M18.9338 1.15429C18.7919 1.01669 18.5621 1.01669 18.4203 1.15429L8.86151 10.426L4.76031 6.77925C4.61243 6.64784 4.38264 6.65747 4.24716 6.80091C4.11171 6.94435 4.12161 7.16724 4.26949 7.29861L8.62708 11.1731C8.69659 11.235 8.78452 11.2656 8.87249 11.2656C8.96556 11.2656 9.0585 11.2313 9.12925 11.1625L18.9338 1.65235C19.0756 1.51478 19.0756 1.29189 18.9338 1.15429Z" fill="#272C33"/>
</g>
<defs>
<clipPath id="clip0_22_177">
<rect width="18.5573" height="18" fill="white" transform="translate(0.48291)"/>
</clipPath>
</defs>
</svg>
